<?xml version="1.0" encoding="UTF-8"?>
<!DOCTYPE svg PUBLIC "-//W3C//DTD SVG 1.1//EN" "http://www.w3.org/Graphics/SVG/1.1/DTD/svg11.dtd">
<svg xmlns="http://www.w3.org/2000/svg" version="1.1" width="512px" height="512px" style="shape-rendering:geometricPrecision; text-rendering:geometricPrecision; image-rendering:optimizeQuality; fill-rule:evenodd; clip-rule:evenodd" xmlns:xlink="http://www.w3.org/1999/xlink">
<g><path style="opacity:0.984" fill="#ffdc4c" d="M 246.5,15.5 C 262.812,13.1019 276.312,18.1019 287,30.5C 291.662,37.4851 293.329,45.1517 292,53.5C 287.667,81.5 283.333,109.5 279,137.5C 278.214,140.583 276.381,142.749 273.5,144C 261.5,144.667 249.5,144.667 237.5,144C 234.619,142.749 232.786,140.583 232,137.5C 227.667,109.5 223.333,81.5 219,53.5C 217.5,40.9993 221.666,30.8326 231.5,23C 236.313,19.9267 241.313,17.4267 246.5,15.5 Z"/></g>
<g><path style="opacity:0.979" fill="#ffdc4c" d="M 207.5,54.5 C 208.5,54.5 209.5,54.5 210.5,54.5C 214.566,83.5624 219.066,112.562 224,141.5C 226.562,147.061 230.728,150.894 236.5,153C 249.167,153.667 261.833,153.667 274.5,153C 280.272,150.894 284.438,147.061 287,141.5C 291.934,112.562 296.434,83.5624 300.5,54.5C 351.068,71.2487 383.901,105.249 399,156.5C 400.619,162.761 401.786,169.095 402.5,175.5C 304.5,175.5 206.5,175.5 108.5,175.5C 118.592,116.264 151.592,75.9311 207.5,54.5 Z"/></g>
<g><path style="opacity:0.963" fill="#ffdc4b" d="M 103.5,184.5 C 204.834,184.333 306.167,184.5 407.5,185C 409.487,186.319 410.654,188.152 411,190.5C 411.499,195.823 411.666,201.156 411.5,206.5C 307.5,206.5 203.5,206.5 99.5,206.5C 99.334,201.156 99.5006,195.823 100,190.5C 100.564,188.113 101.73,186.113 103.5,184.5 Z"/></g>
<g><path style="opacity:0.977" fill="#ffdb4c" d="M 94.5,215.5 C 201.834,215.333 309.167,215.5 416.5,216C 419.013,218.396 420.013,221.396 419.5,225C 420.147,229.727 418.813,233.727 415.5,237C 309.645,271.964 203.645,272.297 97.5,238C 94.5719,236.74 92.7386,234.573 92,231.5C 91.3333,227.167 91.3333,222.833 92,218.5C 93.045,217.627 93.8783,216.627 94.5,215.5 Z"/></g>
<g><path style="opacity:0.988" fill="#ffdc4b" d="M 126.5,256.5 C 144.441,260.422 162.441,264.088 180.5,267.5C 163.079,308.237 170.746,343.403 203.5,373C 227.93,390.738 254.596,395.071 283.5,386C 323.489,368.651 341.989,338.151 339,294.5C 337.473,285.087 334.64,276.087 330.5,267.5C 347.933,264.347 365.267,260.68 382.5,256.5C 385.674,258.828 389.008,260.994 392.5,263C 404.447,264.692 416.447,266.026 428.5,267C 437.672,269.837 442.839,276.004 444,285.5C 444.376,292.509 444.876,299.509 445.5,306.5C 444.876,313.491 444.376,320.491 444,327.5C 442.451,334.379 438.618,339.546 432.5,343C 419.939,345.323 407.272,346.99 394.5,348C 383.517,352.8 379.683,360.967 383,372.5C 389.955,381.79 397.288,390.79 405,399.5C 409.667,407.5 409.667,415.5 405,423.5C 396.87,433.964 387.703,443.464 377.5,452C 370.44,458.098 362.44,459.764 353.5,457C 343.804,450.149 334.47,442.816 325.5,435C 313.963,429.261 305.13,432.095 299,443.5C 297.173,455.088 295.839,466.754 295,478.5C 292.158,488.851 285.325,494.351 274.5,495C 259.792,495.894 245.126,495.56 230.5,494C 224.667,491.5 220.5,487.333 218,481.5C 216.487,469.86 215.154,458.193 214,446.5C 208.321,432.747 198.821,429.247 185.5,436C 177.352,443.238 169.019,450.238 160.5,457C 152.979,460.544 145.646,460.21 138.5,456C 125.249,446.084 114.083,434.251 105,420.5C 101.965,411.513 103.631,403.513 110,396.5C 116.714,388.788 123.047,380.788 129,372.5C 131.536,361.07 127.369,353.237 116.5,349C 105.844,347.89 95.1775,346.89 84.5,346C 74.2093,344.043 68.376,337.876 67,327.5C 66.6244,320.491 66.1244,313.491 65.5,306.5C 66.1244,299.509 66.6244,292.509 67,285.5C 68.2136,277.288 72.7136,271.788 80.5,269C 92.1167,267.338 103.783,266.005 115.5,265C 120.364,263.584 124.03,260.751 126.5,256.5 Z"/></g>
</svg>
