<?xml version="1.0" encoding="UTF-8"?>
<!DOCTYPE svg PUBLIC "-//W3C//DTD SVG 1.1//EN" "http://www.w3.org/Graphics/SVG/1.1/DTD/svg11.dtd">
<svg xmlns="http://www.w3.org/2000/svg" version="1.1" width="1201px" height="1007px" style="shape-rendering:geometricPrecision; text-rendering:geometricPrecision; image-rendering:optimizeQuality; fill-rule:evenodd; clip-rule:evenodd" xmlns:xlink="http://www.w3.org/1999/xlink">
<g><path style="opacity:1" fill="#cfc547" d="M 1028.5,17.5 C 1028.43,19.0269 1029.09,20.0269 1030.5,20.5C 1036.03,27.0769 1039.03,34.7435 1039.5,43.5C 1039.5,123.833 1039.5,204.167 1039.5,284.5C 1081.83,284.5 1124.17,284.5 1166.5,284.5C 1173.19,285.184 1179.19,287.518 1184.5,291.5C 1185.03,293.446 1186.37,294.446 1188.5,294.5C 1190.17,295.5 1191.5,296.833 1192.5,298.5C 1192.74,300.404 1193.74,301.738 1195.5,302.5C 1195.43,304.027 1196.09,305.027 1197.5,305.5C 1198.5,306.833 1199.5,308.167 1200.5,309.5C 1200.5,533.167 1200.5,756.833 1200.5,980.5C 1191.75,995.589 1178.75,1004.26 1161.5,1006.5C 1016.83,1006.5 872.167,1006.5 727.5,1006.5C 722.155,1005.56 716.821,1004.06 711.5,1002C 708.039,1000.36 705.039,998.19 702.5,995.5C 702.027,994.094 701.027,993.427 699.5,993.5C 690.261,985.346 685.594,975.013 685.5,962.5C 685.5,896.833 685.5,831.167 685.5,765.5C 472.833,765.5 260.167,765.5 47.5,765.5C 39.5895,755.345 31.9229,745.012 24.5,734.5C 24.4456,732.368 23.4456,731.035 21.5,730.5C 14.2016,721.928 7.36823,712.928 1,703.5C 0.500045,683.169 0.333378,662.836 0.5,642.5C 25.1667,642.5 49.8333,642.5 74.5,642.5C 74.5,443.833 74.5,245.167 74.5,46.5C 74.5197,36.4759 77.8531,27.8093 84.5,20.5C 85.9063,20.0269 86.573,19.0269 86.5,17.5C 86.8333,16.5 87.5,15.8333 88.5,15.5C 90.4044,15.2624 91.7377,14.2624 92.5,12.5C 100.376,5.47653 109.709,1.64319 120.5,1C 412.167,0.333333 703.833,0.333333 995.5,1C 1008.96,1.8575 1019.96,7.3575 1028.5,17.5 Z M 1011.5,45.5 C 1011.5,61.8333 1011.5,78.1667 1011.5,94.5C 708.5,94.5 405.5,94.5 102.5,94.5C 102.333,78.1633 102.5,61.8299 103,45.5C 105.599,37.2343 111.099,32.0677 119.5,30C 411.5,29.3333 703.5,29.3333 995.5,30C 1003.95,31.9496 1009.28,37.1162 1011.5,45.5 Z M 1011.5,123.5 C 1011.5,176.833 1011.5,230.167 1011.5,283.5C 915.332,283.167 819.332,283.501 723.5,284.5C 711.759,285.701 702.426,291.035 695.5,300.5C 694.094,300.973 693.427,301.973 693.5,303.5C 691.076,306.008 689.41,309.008 688.5,312.5C 687.076,314.515 686.41,316.848 686.5,319.5C 685.527,321.948 685.194,324.615 685.5,327.5C 684.501,432.665 684.167,537.999 684.5,643.5C 490.5,643.5 296.5,643.5 102.5,643.5C 102.5,470.167 102.5,296.833 102.5,123.5C 405.5,123.5 708.5,123.5 1011.5,123.5 Z M 384.5,197.5 C 386.319,210.262 388.652,222.929 391.5,235.5C 410.851,239.949 429.185,246.949 446.5,256.5C 446.973,257.906 447.973,258.573 449.5,258.5C 451.765,261.626 454.765,263.126 458.5,263C 468.028,255.972 477.695,249.139 487.5,242.5C 494.319,248.819 500.986,255.319 507.5,262C 503.777,266.63 500.443,271.464 497.5,276.5C 496.094,276.973 495.427,277.973 495.5,279.5C 492.395,282.275 490.062,285.608 488.5,289.5C 485.808,290.591 485.142,292.257 486.5,294.5C 500.111,313.403 509.111,334.403 513.5,357.5C 526.383,360.677 539.383,363.343 552.5,365.5C 552.5,375.167 552.5,384.833 552.5,394.5C 538.998,396.834 525.832,400.167 513,404.5C 508.967,428.116 499.801,449.449 485.5,468.5C 492.71,479.087 500.044,489.587 507.5,500C 501,506.5 494.5,513 488,519.5C 478.953,512.946 469.786,506.613 460.5,500.5C 458.652,497.522 456.652,497.188 454.5,499.5C 443.795,506.521 432.462,512.521 420.5,517.5C 415.607,518.796 410.94,520.462 406.5,522.5C 401.55,523.057 396.717,524.057 392,525.5C 388.925,538.041 386.425,550.708 384.5,563.5C 374.24,564.102 364.24,563.436 354.5,561.5C 352.755,549.194 350.422,537.028 347.5,525C 331.259,522.309 315.925,517.142 301.5,509.5C 300.71,508.599 299.71,507.932 298.5,507.5C 293.494,504.999 288.827,501.999 284.5,498.5C 282.872,497.147 281.538,497.481 280.5,499.5C 278.973,499.427 277.973,500.094 277.5,501.5C 272.531,504.478 267.865,507.811 263.5,511.5C 261.973,511.427 260.973,512.094 260.5,513.5C 257.433,515.121 254.599,517.121 252,519.5C 245.319,512.986 238.819,506.319 232.5,499.5C 239.761,489.3 246.761,478.967 253.5,468.5C 238.836,448.519 229.836,426.185 226.5,401.5C 213.523,399.038 200.523,396.705 187.5,394.5C 187.5,384.833 187.5,375.167 187.5,365.5C 188.791,365.737 189.791,365.404 190.5,364.5C 201.277,362.927 211.944,360.927 222.5,358.5C 223.833,358.5 225.167,358.5 226.5,358.5C 226.5,357.167 226.5,355.833 226.5,354.5C 231.516,332.297 240.516,311.797 253.5,293C 252.04,289.719 250.04,286.886 247.5,284.5C 247.573,282.973 246.906,281.973 245.5,281.5C 245.262,279.596 244.262,278.262 242.5,277.5C 242.573,275.973 241.906,274.973 240.5,274.5C 239.214,271.883 237.547,269.55 235.5,267.5C 235.573,265.973 234.906,264.973 233.5,264.5C 232.972,263.153 232.805,261.819 233,260.5C 239.014,254.318 245.181,248.318 251.5,242.5C 257.053,246.437 262.72,250.104 268.5,253.5C 268.973,254.906 269.973,255.573 271.5,255.5C 274.672,259.012 278.506,261.679 283,263.5C 301.957,250.274 322.79,241.274 345.5,236.5C 346.5,236.5 347.5,236.5 348.5,236.5C 348.5,235.167 348.5,233.833 348.5,232.5C 351.008,221.624 353.008,210.624 354.5,199.5C 364.24,197.564 374.24,196.898 384.5,197.5 Z M 1168.5,314.5 C 1169.5,316.167 1170.83,317.5 1172.5,318.5C 1174.72,321.796 1175.89,325.463 1176,329.5C 1176.5,347.83 1176.67,366.164 1176.5,384.5C 1022.17,384.5 867.833,384.5 713.5,384.5C 713.333,365.164 713.5,345.83 714,326.5C 716.527,317.637 722.361,312.803 731.5,312C 873.833,311.333 1016.17,311.333 1158.5,312C 1162,312.303 1165.33,313.136 1168.5,314.5 Z M 399.5,327.5 C 399.973,328.906 400.973,329.573 402.5,329.5C 402.973,330.906 403.973,331.573 405.5,331.5C 406.5,333.167 407.833,334.5 409.5,335.5C 410.167,336.833 411.167,337.833 412.5,338.5C 431.797,360.248 435.131,384.248 422.5,410.5C 421.094,410.973 420.427,411.973 420.5,413.5C 419.094,413.973 418.427,414.973 418.5,416.5C 417.5,416.833 416.833,417.5 416.5,418.5C 415.094,418.973 414.427,419.973 414.5,421.5C 413.167,422.167 412.167,423.167 411.5,424.5C 409.251,425.08 407.585,426.413 406.5,428.5C 399.846,432.661 392.846,435.995 385.5,438.5C 381.64,438.808 377.974,439.475 374.5,440.5C 357.291,441.048 342.291,435.715 329.5,424.5C 327.833,422.167 325.833,420.167 323.5,418.5C 304.673,392.388 304.839,366.388 324,340.5C 346.021,318.063 371.188,313.73 399.5,327.5 Z M 1175.5,413.5 C 1175.5,567.167 1175.5,720.833 1175.5,874.5C 1021.5,874.5 867.5,874.5 713.5,874.5C 713.5,720.833 713.5,567.167 713.5,413.5C 867.5,413.5 1021.5,413.5 1175.5,413.5 Z M 24.5,670.5 C 244.5,670.5 464.5,670.5 684.5,670.5C 684.5,692.833 684.5,715.167 684.5,737.5C 476.43,737.832 268.43,737.499 60.5,736.5C 49.2423,720.73 37.7423,705.063 26,689.5C 24.5845,683.285 24.0845,676.952 24.5,670.5 Z M 1174.5,968.5 C 1173.09,968.973 1172.43,969.973 1172.5,971.5C 1169.64,974.097 1166.31,975.93 1162.5,977C 1017.5,977.667 872.5,977.667 727.5,977C 719.886,975.053 715.386,970.22 714,962.5C 713.5,942.503 713.333,922.503 713.5,902.5C 867.5,902.5 1021.5,902.5 1175.5,902.5C 1175.8,924.533 1175.47,946.533 1174.5,968.5 Z"/></g>
<g><path style="opacity:0.725" fill="#e9e3a3" d="M 92.5,12.5 C 91.7377,14.2624 90.4044,15.2624 88.5,15.5C 89.2623,13.7376 90.5956,12.7376 92.5,12.5 Z"/></g>
<g><path style="opacity:0.737" fill="#ece6b3" d="M 86.5,17.5 C 86.573,19.0269 85.9063,20.0269 84.5,20.5C 84.427,18.9731 85.0937,17.9731 86.5,17.5 Z"/></g>
<g><path style="opacity:0.733" fill="#ede6b1" d="M 1028.5,17.5 C 1029.91,17.9731 1030.57,18.9731 1030.5,20.5C 1029.09,20.0269 1028.43,19.0269 1028.5,17.5 Z"/></g>
<g><path style="opacity:0.016" fill="#fefefb" d="M 1011.5,45.5 C 1012.5,61.9916 1012.83,78.6583 1012.5,95.5C 709,95.8331 405.666,95.4998 102.5,94.5C 405.5,94.5 708.5,94.5 1011.5,94.5C 1011.5,78.1667 1011.5,61.8333 1011.5,45.5 Z"/></g>
<g><path style="opacity:0.314" fill="#efecc2" d="M 332.5,171.5 C 357.995,170.502 383.661,170.169 409.5,170.5C 409.5,171.833 409.5,173.167 409.5,174.5C 408.596,173.791 408.263,172.791 408.5,171.5C 383.167,171.5 357.833,171.5 332.5,171.5 Z"/></g>
<g><path style="opacity:1" fill="#cfc64a" d="M 332.5,171.5 C 357.833,171.5 383.167,171.5 408.5,171.5C 408.263,172.791 408.596,173.791 409.5,174.5C 411.832,187.161 414.166,199.828 416.5,212.5C 430.501,216.611 443.834,222.278 456.5,229.5C 458.725,227.89 461.059,226.557 463.5,225.5C 465.027,225.573 466.027,224.906 466.5,223.5C 471.892,219.447 477.559,215.78 483.5,212.5C 485.027,212.573 486.027,211.906 486.5,210.5C 487.899,209.11 489.566,208.11 491.5,207.5C 492.552,207.351 493.552,207.517 494.5,208C 512.035,225.368 529.368,242.868 546.5,260.5C 538.797,272.383 530.464,283.883 521.5,295C 527.818,305.119 532.484,315.953 535.5,327.5C 535.41,330.152 536.076,332.485 537.5,334.5C 551.5,337.167 565.5,339.833 579.5,342.5C 579.5,367.833 579.5,393.167 579.5,418.5C 577.585,418.216 575.919,418.549 574.5,419.5C 563.935,421.321 553.268,422.654 542.5,423.5C 540.219,423.077 538.552,423.744 537.5,425.5C 536.514,430.96 535.014,436.293 533,441.5C 529.497,449.172 525.997,456.838 522.5,464.5C 524.587,469.01 526.92,473.343 529.5,477.5C 529.427,479.027 530.094,480.027 531.5,480.5C 531.427,482.027 532.094,483.027 533.5,483.5C 533.427,485.027 534.094,486.027 535.5,486.5C 538.221,489.894 540.554,493.561 542.5,497.5C 542.427,499.027 543.094,500.027 544.5,500.5C 545.525,500.897 545.692,501.563 545,502.5C 527.319,520.347 509.486,538.014 491.5,555.5C 479.562,547.284 467.729,538.951 456,530.5C 443.921,537.453 431.088,542.62 417.5,546C 413.817,559.922 411.151,574.089 409.5,588.5C 383.831,588.667 358.165,588.5 332.5,588C 330.011,575.237 327.678,562.404 325.5,549.5C 325.197,547.886 324.53,546.552 323.5,545.5C 321.485,544.076 319.152,543.41 316.5,543.5C 305.518,540.429 295.018,536.095 285,530.5C 273.211,537.974 261.378,545.307 249.5,552.5C 248.167,552.167 246.833,551.833 245.5,551.5C 228.5,535.167 211.833,518.5 195.5,501.5C 195.5,500.167 195.5,498.833 195.5,497.5C 203.475,486.518 211.475,475.518 219.5,464.5C 211.942,452.051 206.608,438.717 203.5,424.5C 190.409,422.485 177.409,420.152 164.5,417.5C 163.791,416.596 162.791,416.263 161.5,416.5C 161.5,391.167 161.5,365.833 161.5,340.5C 175.449,337.911 189.449,335.577 203.5,333.5C 204.924,331.485 205.59,329.152 205.5,326.5C 208.363,314.604 213.03,303.437 219.5,293C 211.916,281.599 204.583,270.099 197.5,258.5C 197.351,257.448 197.517,256.448 198,255.5C 203.703,249.965 209.203,244.298 214.5,238.5C 215.5,236.833 216.833,235.5 218.5,234.5C 227.446,227.222 235.779,219.222 243.5,210.5C 244.833,208.5 246.5,206.833 248.5,205.5C 249.5,205.5 250.5,205.5 251.5,205.5C 262.726,213.368 273.892,221.368 285,229.5C 295.437,223.03 306.604,218.363 318.5,215.5C 321.577,215.821 323.91,214.821 325.5,212.5C 327.299,198.707 329.632,185.041 332.5,171.5 Z M 384.5,197.5 C 386.319,210.262 388.652,222.929 391.5,235.5C 410.851,239.949 429.185,246.949 446.5,256.5C 446.973,257.906 447.973,258.573 449.5,258.5C 451.765,261.626 454.765,263.126 458.5,263C 468.028,255.972 477.695,249.139 487.5,242.5C 494.319,248.819 500.986,255.319 507.5,262C 503.777,266.63 500.443,271.464 497.5,276.5C 496.094,276.973 495.427,277.973 495.5,279.5C 492.395,282.275 490.062,285.608 488.5,289.5C 485.808,290.591 485.142,292.257 486.5,294.5C 500.111,313.403 509.111,334.403 513.5,357.5C 526.383,360.677 539.383,363.343 552.5,365.5C 552.5,375.167 552.5,384.833 552.5,394.5C 538.998,396.834 525.832,400.167 513,404.5C 508.967,428.116 499.801,449.449 485.5,468.5C 492.71,479.087 500.044,489.587 507.5,500C 501,506.5 494.5,513 488,519.5C 478.953,512.946 469.786,506.613 460.5,500.5C 458.652,497.522 456.652,497.188 454.5,499.5C 443.795,506.521 432.462,512.521 420.5,517.5C 415.607,518.796 410.94,520.462 406.5,522.5C 401.55,523.057 396.717,524.057 392,525.5C 388.925,538.041 386.425,550.708 384.5,563.5C 374.24,564.102 364.24,563.436 354.5,561.5C 352.755,549.194 350.422,537.028 347.5,525C 331.259,522.309 315.925,517.142 301.5,509.5C 300.71,508.599 299.71,507.932 298.5,507.5C 293.494,504.999 288.827,501.999 284.5,498.5C 282.872,497.147 281.538,497.481 280.5,499.5C 278.973,499.427 277.973,500.094 277.5,501.5C 272.531,504.478 267.865,507.811 263.5,511.5C 261.973,511.427 260.973,512.094 260.5,513.5C 257.433,515.121 254.599,517.121 252,519.5C 245.319,512.986 238.819,506.319 232.5,499.5C 239.761,489.3 246.761,478.967 253.5,468.5C 238.836,448.519 229.836,426.185 226.5,401.5C 213.523,399.038 200.523,396.705 187.5,394.5C 187.5,384.833 187.5,375.167 187.5,365.5C 188.791,365.737 189.791,365.404 190.5,364.5C 201.277,362.927 211.944,360.927 222.5,358.5C 223.833,358.5 225.167,358.5 226.5,358.5C 226.5,357.167 226.5,355.833 226.5,354.5C 231.516,332.297 240.516,311.797 253.5,293C 252.04,289.719 250.04,286.886 247.5,284.5C 247.573,282.973 246.906,281.973 245.5,281.5C 245.262,279.596 244.262,278.262 242.5,277.5C 242.573,275.973 241.906,274.973 240.5,274.5C 239.214,271.883 237.547,269.55 235.5,267.5C 235.573,265.973 234.906,264.973 233.5,264.5C 232.972,263.153 232.805,261.819 233,260.5C 239.014,254.318 245.181,248.318 251.5,242.5C 257.053,246.437 262.72,250.104 268.5,253.5C 268.973,254.906 269.973,255.573 271.5,255.5C 274.672,259.012 278.506,261.679 283,263.5C 301.957,250.274 322.79,241.274 345.5,236.5C 346.5,236.5 347.5,236.5 348.5,236.5C 348.5,235.167 348.5,233.833 348.5,232.5C 351.008,221.624 353.008,210.624 354.5,199.5C 364.24,197.564 374.24,196.898 384.5,197.5 Z M 399.5,327.5 C 399.973,328.906 400.973,329.573 402.5,329.5C 402.973,330.906 403.973,331.573 405.5,331.5C 406.5,333.167 407.833,334.5 409.5,335.5C 410.167,336.833 411.167,337.833 412.5,338.5C 431.797,360.248 435.131,384.248 422.5,410.5C 421.094,410.973 420.427,411.973 420.5,413.5C 419.094,413.973 418.427,414.973 418.5,416.5C 417.5,416.833 416.833,417.5 416.5,418.5C 415.094,418.973 414.427,419.973 414.5,421.5C 413.167,422.167 412.167,423.167 411.5,424.5C 409.251,425.08 407.585,426.413 406.5,428.5C 399.846,432.661 392.846,435.995 385.5,438.5C 381.64,438.808 377.974,439.475 374.5,440.5C 357.291,441.048 342.291,435.715 329.5,424.5C 327.833,422.167 325.833,420.167 323.5,418.5C 304.673,392.388 304.839,366.388 324,340.5C 346.021,318.063 371.188,313.73 399.5,327.5 Z"/></g>
<g><path style="opacity:0.533" fill="#e6e09f" d="M 384.5,197.5 C 374.24,196.898 364.24,197.564 354.5,199.5C 354.5,198.5 354.5,197.5 354.5,196.5C 364.681,196.173 374.681,196.506 384.5,197.5 Z"/></g>
<g><path style="opacity:0.824" fill="#ece4ac" d="M 251.5,205.5 C 250.5,205.5 249.5,205.5 248.5,205.5C 249.5,202.833 250.5,202.833 251.5,205.5 Z"/></g>
<g><path style="opacity:0.643" fill="#efebc1" d="M 546.5,260.5 C 529.368,242.868 512.035,225.368 494.5,208C 493.552,207.517 492.552,207.351 491.5,207.5C 492.002,205.915 493.002,205.415 494.5,206C 512,223.5 529.5,241 547,258.5C 547.692,259.437 547.525,260.103 546.5,260.5 Z"/></g>
<g><path style="opacity:0.757" fill="#eae4a9" d="M 486.5,210.5 C 486.027,211.906 485.027,212.573 483.5,212.5C 483.973,211.094 484.973,210.427 486.5,210.5 Z"/></g>
<g><path style="opacity:0.949" fill="#e3dd93" d="M 325.5,212.5 C 323.91,214.821 321.577,215.821 318.5,215.5C 320.679,214.323 323.013,213.323 325.5,212.5 Z"/></g>
<g><path style="opacity:0.757" fill="#eae4a9" d="M 466.5,223.5 C 466.027,224.906 465.027,225.573 463.5,225.5C 463.973,224.094 464.973,223.427 466.5,223.5 Z"/></g>
<g><path style="opacity:0.965" fill="#e0d884" d="M 243.5,210.5 C 235.779,219.222 227.446,227.222 218.5,234.5C 226.221,225.778 234.554,217.778 243.5,210.5 Z"/></g>
<g><path style="opacity:0.024" fill="#f2eecc" d="M 348.5,232.5 C 348.5,233.833 348.5,235.167 348.5,236.5C 347.5,236.5 346.5,236.5 345.5,236.5C 346.659,235.26 347.659,233.926 348.5,232.5 Z"/></g>
<g><path style="opacity:0.918" fill="#e3db8e" d="M 214.5,238.5 C 209.203,244.298 203.703,249.965 198,255.5C 197.517,256.448 197.351,257.448 197.5,258.5C 196.733,257.828 196.066,256.995 195.5,256C 201.423,249.571 207.757,243.737 214.5,238.5 Z"/></g>
<g><path style="opacity:0.553" fill="#ebe4ab" d="M 268.5,253.5 C 270.027,253.427 271.027,254.094 271.5,255.5C 269.973,255.573 268.973,254.906 268.5,253.5 Z"/></g>
<g><path style="opacity:0.392" fill="#efe9ba" d="M 446.5,256.5 C 448.027,256.427 449.027,257.094 449.5,258.5C 447.973,258.573 446.973,257.906 446.5,256.5 Z"/></g>
<g><path style="opacity:0.549" fill="#ebe4ab" d="M 233.5,264.5 C 234.906,264.973 235.573,265.973 235.5,267.5C 234.094,267.027 233.427,266.027 233.5,264.5 Z"/></g>
<g><path style="opacity:0.604" fill="#e9e2a5" d="M 240.5,274.5 C 241.906,274.973 242.573,275.973 242.5,277.5C 241.094,277.027 240.427,276.027 240.5,274.5 Z"/></g>
<g><path style="opacity:0.569" fill="#e9e4a9" d="M 497.5,276.5 C 497.573,278.027 496.906,279.027 495.5,279.5C 495.427,277.973 496.094,276.973 497.5,276.5 Z"/></g>
<g><path style="opacity:0.545" fill="#eae5ab" d="M 245.5,281.5 C 246.906,281.973 247.573,282.973 247.5,284.5C 246.094,284.027 245.427,283.027 245.5,281.5 Z"/></g>
<g><path style="opacity:0.706" fill="#e1db8e" d="M 1011.5,123.5 C 1012.5,176.997 1012.83,230.664 1012.5,284.5C 916.167,284.5 819.833,284.5 723.5,284.5C 819.332,283.501 915.332,283.167 1011.5,283.5C 1011.5,230.167 1011.5,176.833 1011.5,123.5 Z"/></g>
<g><path style="opacity:0.706" fill="#e3de96" d="M 1039.5,43.5 C 1040.5,123.332 1040.83,203.332 1040.5,283.5C 1082.67,283.168 1124.67,283.501 1166.5,284.5C 1124.17,284.5 1081.83,284.5 1039.5,284.5C 1039.5,204.167 1039.5,123.833 1039.5,43.5 Z"/></g>
<g><path style="opacity:0.929" fill="#e9e3a8" d="M 488.5,289.5 C 487.833,291.167 487.167,292.833 486.5,294.5C 485.142,292.257 485.808,290.591 488.5,289.5 Z"/></g>
<g><path style="opacity:0.984" fill="#eae2a3" d="M 1184.5,291.5 C 1186.23,292.026 1187.56,293.026 1188.5,294.5C 1186.37,294.446 1185.03,293.446 1184.5,291.5 Z"/></g>
<g><path style="opacity:1" fill="#d0c64b" d="M 436.5,322.5 C 436.427,324.027 437.094,325.027 438.5,325.5C 446.424,334.009 451.757,344.009 454.5,355.5C 454.41,358.152 455.076,360.485 456.5,362.5C 463.484,401.391 451.151,432.557 419.5,456C 390.868,472.985 361.201,474.985 330.5,462C 327.761,460.974 325.428,459.474 323.5,457.5C 323.027,456.094 322.027,455.427 320.5,455.5C 318.596,455.262 317.262,454.262 316.5,452.5C 316.027,451.094 315.027,450.427 313.5,450.5C 312.167,449.833 311.167,448.833 310.5,447.5C 309.738,445.738 308.404,444.738 306.5,444.5C 301.048,439.711 296.715,434.045 293.5,427.5C 293.715,425.821 293.048,424.821 291.5,424.5C 278.27,398.74 277.103,372.406 288,345.5C 289.689,341.44 291.856,337.773 294.5,334.5C 295.906,334.027 296.573,333.027 296.5,331.5C 306.709,315.722 320.709,304.722 338.5,298.5C 342.162,298.277 345.495,297.277 348.5,295.5C 375.605,288.954 400.605,293.787 423.5,310C 428.336,313.67 432.669,317.836 436.5,322.5 Z M 399.5,327.5 C 399.973,328.906 400.973,329.573 402.5,329.5C 402.973,330.906 403.973,331.573 405.5,331.5C 406.5,333.167 407.833,334.5 409.5,335.5C 410.167,336.833 411.167,337.833 412.5,338.5C 431.797,360.248 435.131,384.248 422.5,410.5C 421.094,410.973 420.427,411.973 420.5,413.5C 419.094,413.973 418.427,414.973 418.5,416.5C 417.5,416.833 416.833,417.5 416.5,418.5C 415.094,418.973 414.427,419.973 414.5,421.5C 413.167,422.167 412.167,423.167 411.5,424.5C 409.251,425.08 407.585,426.413 406.5,428.5C 399.846,432.661 392.846,435.995 385.5,438.5C 381.64,438.808 377.974,439.475 374.5,440.5C 357.291,441.048 342.291,435.715 329.5,424.5C 327.833,422.167 325.833,420.167 323.5,418.5C 304.673,392.388 304.839,366.388 324,340.5C 346.021,318.063 371.188,313.73 399.5,327.5 Z"/></g>
<g><path style="opacity:0.925" fill="#e3db8f" d="M 348.5,295.5 C 345.495,297.277 342.162,298.277 338.5,298.5C 341.505,296.723 344.838,295.723 348.5,295.5 Z"/></g>
<g><path style="opacity:0.824" fill="#eae4a9" d="M 1192.5,298.5 C 1194.26,299.262 1195.26,300.596 1195.5,302.5C 1193.74,301.738 1192.74,300.404 1192.5,298.5 Z"/></g>
<g><path style="opacity:0.835" fill="#e9e3a5" d="M 695.5,300.5 C 695.573,302.027 694.906,303.027 693.5,303.5C 693.427,301.973 694.094,300.973 695.5,300.5 Z"/></g>
<g><path style="opacity:0.537" fill="#eae3aa" d="M 1195.5,302.5 C 1196.91,302.973 1197.57,303.973 1197.5,305.5C 1196.09,305.027 1195.43,304.027 1195.5,302.5 Z"/></g>
<g><path style="opacity:0.788" fill="#eee8b8" d="M 1168.5,314.5 C 1170.83,314.833 1172.17,316.167 1172.5,318.5C 1170.83,317.5 1169.5,316.167 1168.5,314.5 Z"/></g>
<g><path style="opacity:0.969" fill="#e4dd93" d="M 688.5,312.5 C 688.59,315.152 687.924,317.485 686.5,319.5C 686.41,316.848 687.076,314.515 688.5,312.5 Z"/></g>
<g><path style="opacity:0.706" fill="#ede7b5" d="M 436.5,322.5 C 437.906,322.973 438.573,323.973 438.5,325.5C 437.094,325.027 436.427,324.027 436.5,322.5 Z"/></g>
<g><path style="opacity:0.455" fill="#ece8b4" d="M 399.5,327.5 C 401.027,327.427 402.027,328.094 402.5,329.5C 400.973,329.573 399.973,328.906 399.5,327.5 Z"/></g>
<g><path style="opacity:0.957" fill="#e4dc92" d="M 205.5,326.5 C 205.59,329.152 204.924,331.485 203.5,333.5C 203.41,330.848 204.076,328.515 205.5,326.5 Z"/></g>
<g><path style="opacity:0.82" fill="#eae2a6" d="M 402.5,329.5 C 404.027,329.427 405.027,330.094 405.5,331.5C 403.973,331.573 402.973,330.906 402.5,329.5 Z"/></g>
<g><path style="opacity:0.976" fill="#e1da8c" d="M 535.5,327.5 C 536.924,329.515 537.59,331.848 537.5,334.5C 536.076,332.485 535.41,330.152 535.5,327.5 Z"/></g>
<g><path style="opacity:0.706" fill="#e9e3a4" d="M 971.5,359.5 C 971.5,350.5 971.5,341.5 971.5,332.5C 943.833,332.5 916.167,332.5 888.5,332.5C 888.5,341.5 888.5,350.5 888.5,359.5C 887.506,350.348 887.173,341.015 887.5,331.5C 915.833,331.5 944.167,331.5 972.5,331.5C 972.827,341.015 972.494,350.348 971.5,359.5 Z"/></g>
<g><path style="opacity:1" fill="#cdc543" d="M 971.5,359.5 C 943.833,359.5 916.167,359.5 888.5,359.5C 888.5,350.5 888.5,341.5 888.5,332.5C 916.167,332.5 943.833,332.5 971.5,332.5C 971.5,341.5 971.5,350.5 971.5,359.5 Z"/></g>
<g><path style="opacity:0.522" fill="#eae4ac" d="M 296.5,331.5 C 296.573,333.027 295.906,334.027 294.5,334.5C 294.427,332.973 295.094,331.973 296.5,331.5 Z"/></g>
<g><path style="opacity:0.675" fill="#f0ebc0" d="M 409.5,335.5 C 411.5,335.5 412.5,336.5 412.5,338.5C 411.167,337.833 410.167,336.833 409.5,335.5 Z"/></g>
<g><path style="opacity:0.392" fill="#ece7b4" d="M 161.5,340.5 C 161.5,365.833 161.5,391.167 161.5,416.5C 162.791,416.263 163.791,416.596 164.5,417.5C 163.167,417.5 161.833,417.5 160.5,417.5C 160.169,391.661 160.502,365.995 161.5,340.5 Z"/></g>
<g><path style="opacity:0.69" fill="#dfd782" d="M 579.5,342.5 C 580.498,367.995 580.831,393.661 580.5,419.5C 578.5,419.5 576.5,419.5 574.5,419.5C 575.919,418.549 577.585,418.216 579.5,418.5C 579.5,393.167 579.5,367.833 579.5,342.5 Z"/></g>
<g><path style="opacity:0.467" fill="#eae6af" d="M 226.5,354.5 C 226.5,355.833 226.5,357.167 226.5,358.5C 225.167,358.5 223.833,358.5 222.5,358.5C 223.209,357.596 224.209,357.263 225.5,357.5C 225.263,356.209 225.596,355.209 226.5,354.5 Z"/></g>
<g><path style="opacity:0.706" fill="#e5df99" d="M 454.5,355.5 C 455.924,357.515 456.59,359.848 456.5,362.5C 455.076,360.485 454.41,358.152 454.5,355.5 Z"/></g>
<g><path style="opacity:0.455" fill="#eae6ac" d="M 190.5,364.5 C 189.791,365.404 188.791,365.737 187.5,365.5C 187.5,375.167 187.5,384.833 187.5,394.5C 186.506,384.681 186.173,374.681 186.5,364.5C 187.833,364.5 189.167,364.5 190.5,364.5 Z"/></g>
<g><path style="opacity:0.42" fill="#ede9b7" d="M 422.5,410.5 C 422.573,412.027 421.906,413.027 420.5,413.5C 420.427,411.973 421.094,410.973 422.5,410.5 Z"/></g>
<g><path style="opacity:0.475" fill="#ede8b6" d="M 420.5,413.5 C 420.573,415.027 419.906,416.027 418.5,416.5C 418.427,414.973 419.094,413.973 420.5,413.5 Z"/></g>
<g><path style="opacity:0.737" fill="#f0ebbf" d="M 323.5,418.5 C 325.833,420.167 327.833,422.167 329.5,424.5C 326.5,423.5 324.5,421.5 323.5,418.5 Z"/></g>
<g><path style="opacity:0.667" fill="#eee8b8" d="M 416.5,418.5 C 416.573,420.027 415.906,421.027 414.5,421.5C 414.427,419.973 415.094,418.973 416.5,418.5 Z"/></g>
<g><path style="opacity:0.176" fill="#f2f0d2" d="M 542.5,423.5 C 540.972,424.309 539.306,424.976 537.5,425.5C 538.552,423.744 540.219,423.077 542.5,423.5 Z"/></g>
<g><path style="opacity:0.937" fill="#ebe3a6" d="M 291.5,424.5 C 293.048,424.821 293.715,425.821 293.5,427.5C 292.599,426.71 291.932,425.71 291.5,424.5 Z"/></g>
<g><path style="opacity:0.914" fill="#e4dc94" d="M 411.5,424.5 C 410.415,426.587 408.749,427.92 406.5,428.5C 407.585,426.413 409.251,425.08 411.5,424.5 Z"/></g>
<g><path style="opacity:0.973" fill="#e4dd94" d="M 385.5,438.5 C 382.155,440.217 378.489,440.884 374.5,440.5C 377.974,439.475 381.64,438.808 385.5,438.5 Z"/></g>
<g><path style="opacity:0.675" fill="#eee9b9" d="M 306.5,444.5 C 308.404,444.738 309.738,445.738 310.5,447.5C 308.596,447.262 307.262,446.262 306.5,444.5 Z"/></g>
<g><path style="opacity:0.8" fill="#e9e3a6" d="M 313.5,450.5 C 315.027,450.427 316.027,451.094 316.5,452.5C 314.973,452.573 313.973,451.906 313.5,450.5 Z"/></g>
<g><path style="opacity:0.471" fill="#ece6b2" d="M 320.5,455.5 C 322.027,455.427 323.027,456.094 323.5,457.5C 321.973,457.573 320.973,456.906 320.5,455.5 Z"/></g>
<g><path style="opacity:0.541" fill="#e9e4a9" d="M 529.5,477.5 C 530.906,477.973 531.573,478.973 531.5,480.5C 530.094,480.027 529.427,479.027 529.5,477.5 Z"/></g>
<g><path style="opacity:0.49" fill="#ebe6af" d="M 531.5,480.5 C 532.906,480.973 533.573,481.973 533.5,483.5C 532.094,483.027 531.427,482.027 531.5,480.5 Z"/></g>
<g><path style="opacity:0.443" fill="#ede7b6" d="M 533.5,483.5 C 534.906,483.973 535.573,484.973 535.5,486.5C 534.094,486.027 533.427,485.027 533.5,483.5 Z"/></g>
<g><path style="opacity:0.839" fill="#eae4a9" d="M 284.5,498.5 C 283.167,498.833 281.833,499.167 280.5,499.5C 281.538,497.481 282.872,497.147 284.5,498.5 Z"/></g>
<g><path style="opacity:0.978" fill="#e7e09e" d="M 460.5,500.5 C 458.565,499.85 456.565,499.517 454.5,499.5C 456.652,497.188 458.652,497.522 460.5,500.5 Z"/></g>
<g><path style="opacity:0.851" fill="#ebe5ae" d="M 195.5,497.5 C 195.5,498.833 195.5,500.167 195.5,501.5C 193.219,500.366 193.219,499.032 195.5,497.5 Z"/></g>
<g><path style="opacity:0.541" fill="#e9e4a9" d="M 542.5,497.5 C 543.906,497.973 544.573,498.973 544.5,500.5C 543.094,500.027 542.427,499.027 542.5,497.5 Z"/></g>
<g><path style="opacity:0.749" fill="#e8e3a9" d="M 280.5,499.5 C 280.027,500.906 279.027,501.573 277.5,501.5C 277.973,500.094 278.973,499.427 280.5,499.5 Z"/></g>
<g><path style="opacity:0.898" fill="#ebe5ad" d="M 298.5,507.5 C 299.71,507.932 300.71,508.599 301.5,509.5C 299.821,509.715 298.821,509.048 298.5,507.5 Z"/></g>
<g><path style="opacity:0.753" fill="#e8e2a8" d="M 263.5,511.5 C 263.027,512.906 262.027,513.573 260.5,513.5C 260.973,512.094 261.973,511.427 263.5,511.5 Z"/></g>
<g><path style="opacity:0.949" fill="#e1d989" d="M 420.5,517.5 C 416.37,520.324 411.703,521.991 406.5,522.5C 410.94,520.462 415.607,518.796 420.5,517.5 Z"/></g>
<g><path style="opacity:1" fill="#d0c74e" d="M 985.5,531.5 C 994.423,535.295 1003.09,539.628 1011.5,544.5C 976.256,615.988 940.756,687.321 905,758.5C 896.421,754.127 887.921,749.627 879.5,745C 914.975,673.884 950.308,602.717 985.5,531.5 Z"/></g>
<g><path style="opacity:0.961" fill="#e3dc91" d="M 316.5,543.5 C 319.152,543.41 321.485,544.076 323.5,545.5C 320.848,545.59 318.515,544.924 316.5,543.5 Z"/></g>
<g><path style="opacity:0.859" fill="#e9e3aa" d="M 245.5,551.5 C 246.833,551.833 248.167,552.167 249.5,552.5C 247.872,553.853 246.538,553.519 245.5,551.5 Z"/></g>
<g><path style="opacity:0.078" fill="#fefef0" d="M 354.5,561.5 C 364.24,563.436 374.24,564.102 384.5,563.5C 374.681,564.494 364.681,564.827 354.5,564.5C 354.5,563.5 354.5,562.5 354.5,561.5 Z"/></g>
<g><path style="opacity:1" fill="#d0c74b" d="M 858.5,582.5 C 858.427,584.027 859.094,585.027 860.5,585.5C 864.845,589.847 868.845,594.514 872.5,599.5C 872.5,600.5 872.5,601.5 872.5,602.5C 855.689,616.469 838.689,630.303 821.5,644C 839.351,658.428 857.018,673.095 874.5,688C 868.634,694.696 862.634,701.196 856.5,707.5C 855.167,707.167 853.833,706.833 852.5,706.5C 851.5,706.167 850.833,705.5 850.5,704.5C 849.738,702.738 848.404,701.738 846.5,701.5C 845.5,701.167 844.833,700.5 844.5,699.5C 843.738,697.738 842.404,696.738 840.5,696.5C 839.5,696.167 838.833,695.5 838.5,694.5C 837.738,692.738 836.404,691.738 834.5,691.5C 833.5,691.167 832.833,690.5 832.5,689.5C 831.738,687.738 830.404,686.738 828.5,686.5C 827.5,686.167 826.833,685.5 826.5,684.5C 825.738,682.738 824.404,681.738 822.5,681.5C 821.5,681.167 820.833,680.5 820.5,679.5C 819.738,677.738 818.404,676.738 816.5,676.5C 815.5,676.167 814.833,675.5 814.5,674.5C 813.738,672.738 812.404,671.738 810.5,671.5C 809.5,671.167 808.833,670.5 808.5,669.5C 807.738,667.738 806.404,666.738 804.5,666.5C 803.5,666.167 802.833,665.5 802.5,664.5C 801.738,662.738 800.404,661.738 798.5,661.5C 797.5,661.167 796.833,660.5 796.5,659.5C 795.738,657.738 794.404,656.738 792.5,656.5C 791.5,656.167 790.833,655.5 790.5,654.5C 789.738,652.738 788.404,651.738 786.5,651.5C 785.5,651.167 784.833,650.5 784.5,649.5C 783.738,647.738 782.404,646.738 780.5,646.5C 778.054,645.608 777.388,644.108 778.5,642C 804.292,621.21 829.792,600.044 855,578.5C 856.376,579.705 857.542,581.038 858.5,582.5 Z"/></g>
<g><path style="opacity:0.667" fill="#ede8b6" d="M 1036.5,580.5 C 1034.49,580.392 1032.82,581.058 1031.5,582.5C 1032.32,578.592 1033.98,577.926 1036.5,580.5 Z"/></g>
<g><path style="opacity:1" fill="#d0c74c" d="M 1036.5,580.5 C 1062.63,601.454 1088.63,622.621 1114.5,644C 1088.02,665.74 1061.35,687.24 1034.5,708.5C 1027.46,702.465 1021.13,695.798 1015.5,688.5C 1023.15,681.351 1031.15,674.684 1039.5,668.5C 1042.09,667.581 1044.09,665.914 1045.5,663.5C 1052.98,656.865 1060.64,650.365 1068.5,644C 1067.62,643.292 1066.95,642.458 1066.5,641.5C 1066.03,640.094 1065.03,639.427 1063.5,639.5C 1059.52,636.848 1055.85,633.848 1052.5,630.5C 1052.03,629.094 1051.03,628.427 1049.5,628.5C 1048.5,628.167 1047.83,627.5 1047.5,626.5C 1047.03,625.094 1046.03,624.427 1044.5,624.5C 1043.5,624.167 1042.83,623.5 1042.5,622.5C 1042.03,621.094 1041.03,620.427 1039.5,620.5C 1038.5,620.167 1037.83,619.5 1037.5,618.5C 1037.03,617.094 1036.03,616.427 1034.5,616.5C 1030.52,613.848 1026.85,610.848 1023.5,607.5C 1023.03,606.094 1022.03,605.427 1020.5,605.5C 1019.11,604.386 1017.61,603.386 1016,602.5C 1015.31,601.563 1015.47,600.897 1016.5,600.5C 1018.26,599.738 1019.26,598.404 1019.5,596.5C 1019.83,595.5 1020.5,594.833 1021.5,594.5C 1023.26,593.738 1024.26,592.404 1024.5,590.5C 1024.83,589.5 1025.5,588.833 1026.5,588.5C 1028.26,587.738 1029.26,586.404 1029.5,584.5C 1029.83,583.5 1030.5,582.833 1031.5,582.5C 1032.82,581.058 1034.49,580.392 1036.5,580.5 Z"/></g>
<g><path style="opacity:0.753" fill="#ece6ad" d="M 858.5,582.5 C 859.906,582.973 860.573,583.973 860.5,585.5C 859.094,585.027 858.427,584.027 858.5,582.5 Z"/></g>
<g><path style="opacity:0.8" fill="#eae4ac" d="M 1029.5,584.5 C 1029.26,586.404 1028.26,587.738 1026.5,588.5C 1026.74,586.596 1027.74,585.262 1029.5,584.5 Z"/></g>
<g><path style="opacity:0.8" fill="#eae4ac" d="M 1024.5,590.5 C 1024.26,592.404 1023.26,593.738 1021.5,594.5C 1021.74,592.596 1022.74,591.262 1024.5,590.5 Z"/></g>
<g><path style="opacity:0.8" fill="#eae4ac" d="M 1019.5,596.5 C 1019.26,598.404 1018.26,599.738 1016.5,600.5C 1016.74,598.596 1017.74,597.262 1019.5,596.5 Z"/></g>
<g><path style="opacity:0.863" fill="#ebe4a9" d="M 872.5,599.5 C 875.167,600.5 875.167,601.5 872.5,602.5C 872.5,601.5 872.5,600.5 872.5,599.5 Z"/></g>
<g><path style="opacity:0.494" fill="#ede9b7" d="M 1020.5,605.5 C 1022.03,605.427 1023.03,606.094 1023.5,607.5C 1021.97,607.573 1020.97,606.906 1020.5,605.5 Z"/></g>
<g><path style="opacity:0.776" fill="#e9e3aa" d="M 1034.5,616.5 C 1036.03,616.427 1037.03,617.094 1037.5,618.5C 1035.97,618.573 1034.97,617.906 1034.5,616.5 Z"/></g>
<g><path style="opacity:0.749" fill="#ece7af" d="M 1039.5,620.5 C 1041.03,620.427 1042.03,621.094 1042.5,622.5C 1040.97,622.573 1039.97,621.906 1039.5,620.5 Z"/></g>
<g><path style="opacity:0.722" fill="#ede7b2" d="M 1044.5,624.5 C 1046.03,624.427 1047.03,625.094 1047.5,626.5C 1045.97,626.573 1044.97,625.906 1044.5,624.5 Z"/></g>
<g><path style="opacity:0.482" fill="#ede8b8" d="M 1049.5,628.5 C 1051.03,628.427 1052.03,629.094 1052.5,630.5C 1050.97,630.573 1049.97,629.906 1049.5,628.5 Z"/></g>
<g><path style="opacity:0.769" fill="#ebe3ab" d="M 1063.5,639.5 C 1065.03,639.427 1066.03,640.094 1066.5,641.5C 1064.97,641.573 1063.97,640.906 1063.5,639.5 Z"/></g>
<g><path style="opacity:0.549" fill="#eeeab8" d="M 74.5,46.5 C 74.5,245.167 74.5,443.833 74.5,642.5C 49.8333,642.5 25.1667,642.5 0.5,642.5C 24.6609,641.502 48.9943,641.169 73.5,641.5C 73.1669,442.999 73.5003,244.666 74.5,46.5 Z"/></g>
<g><path style="opacity:0.706" fill="#e6e099" d="M 685.5,327.5 C 685.5,433.167 685.5,538.833 685.5,644.5C 490.999,644.833 296.666,644.5 102.5,643.5C 296.5,643.5 490.5,643.5 684.5,643.5C 684.167,537.999 684.501,432.665 685.5,327.5 Z"/></g>
<g><path style="opacity:0.82" fill="#ece5af" d="M 780.5,646.5 C 782.404,646.738 783.738,647.738 784.5,649.5C 782.596,649.262 781.262,648.262 780.5,646.5 Z"/></g>
<g><path style="opacity:0.82" fill="#ece5af" d="M 786.5,651.5 C 788.404,651.738 789.738,652.738 790.5,654.5C 788.596,654.262 787.262,653.262 786.5,651.5 Z"/></g>
<g><path style="opacity:0.82" fill="#ece5af" d="M 792.5,656.5 C 794.404,656.738 795.738,657.738 796.5,659.5C 794.596,659.262 793.262,658.262 792.5,656.5 Z"/></g>
<g><path style="opacity:0.82" fill="#ece5af" d="M 798.5,661.5 C 800.404,661.738 801.738,662.738 802.5,664.5C 800.596,664.262 799.262,663.262 798.5,661.5 Z"/></g>
<g><path style="opacity:0.82" fill="#ece5af" d="M 804.5,666.5 C 806.404,666.738 807.738,667.738 808.5,669.5C 806.596,669.262 805.262,668.262 804.5,666.5 Z"/></g>
<g><path style="opacity:0.906" fill="#e4db90" d="M 1045.5,663.5 C 1044.09,665.914 1042.09,667.581 1039.5,668.5C 1040.91,666.086 1042.91,664.419 1045.5,663.5 Z"/></g>
<g><path style="opacity:0.141" fill="#f8f8e4" d="M 24.5,670.5 C 244.666,669.5 464.999,669.167 685.5,669.5C 685.5,692.167 685.5,714.833 685.5,737.5C 685.167,737.5 684.833,737.5 684.5,737.5C 684.5,715.167 684.5,692.833 684.5,670.5C 464.5,670.5 244.5,670.5 24.5,670.5 Z"/></g>
<g><path style="opacity:0.82" fill="#ece5af" d="M 810.5,671.5 C 812.404,671.738 813.738,672.738 814.5,674.5C 812.596,674.262 811.262,673.262 810.5,671.5 Z"/></g>
<g><path style="opacity:0.82" fill="#ece5af" d="M 816.5,676.5 C 818.404,676.738 819.738,677.738 820.5,679.5C 818.596,679.262 817.262,678.262 816.5,676.5 Z"/></g>
<g><path style="opacity:0.82" fill="#ece5af" d="M 822.5,681.5 C 824.404,681.738 825.738,682.738 826.5,684.5C 824.596,684.262 823.262,683.262 822.5,681.5 Z"/></g>
<g><path style="opacity:0.82" fill="#ece5af" d="M 828.5,686.5 C 830.404,686.738 831.738,687.738 832.5,689.5C 830.596,689.262 829.262,688.262 828.5,686.5 Z"/></g>
<g><path style="opacity:0.82" fill="#ebe5af" d="M 834.5,691.5 C 836.404,691.738 837.738,692.738 838.5,694.5C 836.596,694.262 835.262,693.262 834.5,691.5 Z"/></g>
<g><path style="opacity:0.82" fill="#ebe5af" d="M 840.5,696.5 C 842.404,696.738 843.738,697.738 844.5,699.5C 842.596,699.262 841.262,698.262 840.5,696.5 Z"/></g>
<g><path style="opacity:0.82" fill="#ebe5af" d="M 846.5,701.5 C 848.404,701.738 849.738,702.738 850.5,704.5C 848.596,704.262 847.262,703.262 846.5,701.5 Z"/></g>
<g><path style="opacity:0.82" fill="#ebe5ad" d="M 852.5,706.5 C 853.833,706.833 855.167,707.167 856.5,707.5C 854.872,708.853 853.538,708.519 852.5,706.5 Z"/></g>
<g><path style="opacity:0.984" fill="#e9e2a4" d="M 21.5,730.5 C 23.4456,731.035 24.4456,732.368 24.5,734.5C 23.0256,733.564 22.0256,732.23 21.5,730.5 Z"/></g>
<g><path style="opacity:0.549" fill="#e3dd96" d="M 60.5,736.5 C 268.43,737.499 476.43,737.832 684.5,737.5C 684.833,737.5 685.167,737.5 685.5,737.5C 581.501,738.167 477.334,738.5 373,738.5C 268.498,738.5 164.331,737.833 60.5,736.5 Z"/></g>
<g><path style="opacity:0.141" fill="#f9f9e5" d="M 47.5,765.5 C 260.167,765.5 472.833,765.5 685.5,765.5C 685.5,831.167 685.5,896.833 685.5,962.5C 684.501,897.335 684.168,832.002 684.5,766.5C 471.999,766.833 259.666,766.5 47.5,765.5 Z"/></g>
<g><path style="opacity:0.941" fill="#e3d98b" d="M 1175.5,413.5 C 1176.5,567.332 1176.83,721.332 1176.5,875.5C 1022,875.833 867.666,875.5 713.5,874.5C 867.5,874.5 1021.5,874.5 1175.5,874.5C 1175.5,720.833 1175.5,567.167 1175.5,413.5 Z"/></g>
<g><path style="opacity:1" fill="#d0c74e" d="M 874.5,925.5 C 910.835,925.333 947.168,925.5 983.5,926C 994.512,929.864 997.345,937.031 992,947.5C 990.269,949.617 988.102,951.117 985.5,952C 947.833,952.667 910.167,952.667 872.5,952C 864.311,947.039 862.144,940.205 866,931.5C 868.322,928.605 871.155,926.605 874.5,925.5 Z"/></g>
<g><path style="opacity:0.498" fill="#ebe6af" d="M 1174.5,968.5 C 1174.57,970.027 1173.91,971.027 1172.5,971.5C 1172.43,969.973 1173.09,968.973 1174.5,968.5 Z"/></g>
<g><path style="opacity:0.773" fill="#ebe5aa" d="M 699.5,993.5 C 701.027,993.427 702.027,994.094 702.5,995.5C 700.973,995.573 699.973,994.906 699.5,993.5 Z"/></g>
</svg>
