<?xml version="1.0" encoding="UTF-8"?>
<!DOCTYPE svg PUBLIC "-//W3C//DTD SVG 1.1//EN" "http://www.w3.org/Graphics/SVG/1.1/DTD/svg11.dtd">
<svg xmlns="http://www.w3.org/2000/svg" version="1.1" width="225px" height="225px" style="shape-rendering:geometricPrecision; text-rendering:geometricPrecision; image-rendering:optimizeQuality; fill-rule:evenodd; clip-rule:evenodd" xmlns:xlink="http://www.w3.org/1999/xlink">
<g><path style="opacity:0.255" fill="#fce5ab" d="M 49.5,70.5 C 51.4726,69.8373 53.6392,69.5039 56,69.5C 59.7822,69.3791 63.2822,70.0458 66.5,71.5C 60.8477,70.9682 55.181,70.6349 49.5,70.5 Z"/></g>
<g><path style="opacity:1" fill="#f5cb78" d="M 137.5,68.5 C 137.5,68.8333 137.5,69.1667 137.5,69.5C 135.596,69.7376 134.262,70.7376 133.5,72.5C 132.549,73.9187 132.216,75.5853 132.5,77.5C 132.5,78.1667 132.5,78.8333 132.5,79.5C 132.028,81.5313 131.028,83.1979 129.5,84.5C 130.059,80.1474 130.725,75.814 131.5,71.5C 133.053,69.615 135.053,68.615 137.5,68.5 Z"/></g>
<g><path style="opacity:0.318" fill="#f9e7ab" d="M 137.5,68.5 C 135.053,68.615 133.053,69.615 131.5,71.5C 132.336,67.8094 134.336,66.8094 137.5,68.5 Z"/></g>
<g><path style="opacity:0.906" fill="#f4da98" d="M 178.5,71.5 C 171.833,70.1667 165.167,70.1667 158.5,71.5C 165.157,68.8922 171.824,68.8922 178.5,71.5 Z"/></g>
<g><path style="opacity:1" fill="#f6ca71" d="M 49.5,70.5 C 55.181,70.6349 60.8477,70.9682 66.5,71.5C 69.3274,71.5838 71.994,72.2504 74.5,73.5C 74.5,74.1667 74.5,74.8333 74.5,75.5C 74.1667,75.5 73.8333,75.5 73.5,75.5C 72.0697,74.4625 70.403,73.7959 68.5,73.5C 65.7131,72.5233 62.7131,72.19 59.5,72.5C 54.8333,72.5 50.1667,72.5 45.5,72.5C 43.5648,73.1495 41.5648,73.4828 39.5,73.5C 42.4525,71.5902 45.7858,70.5902 49.5,70.5 Z"/></g>
<g><path style="opacity:1" fill="#fdc359" d="M 137.5,69.5 C 137.795,71.7354 137.461,73.7354 136.5,75.5C 135.9,74.1001 134.9,73.1001 133.5,72.5C 134.262,70.7376 135.596,69.7376 137.5,69.5 Z"/></g>
<g><path style="opacity:1" fill="#f3c75f" d="M 178.5,71.5 C 178.833,71.5 179.167,71.5 179.5,71.5C 179.5,71.8333 179.5,72.1667 179.5,72.5C 173.167,72.5 166.833,72.5 160.5,72.5C 159.833,72.5 159.167,72.5 158.5,72.5C 158.5,72.1667 158.5,71.8333 158.5,71.5C 165.167,70.1667 171.833,70.1667 178.5,71.5 Z"/></g>
<g><path style="opacity:1" fill="#fdc74f" d="M 45.5,72.5 C 50.1667,72.5 54.8333,72.5 59.5,72.5C 59.7822,73.7777 60.4489,74.7777 61.5,75.5C 58.2869,75.19 55.2869,75.5233 52.5,76.5C 50.1667,76.5 47.8333,76.5 45.5,76.5C 43.5714,76.7692 41.9047,76.2692 40.5,75C 42.6526,74.9005 44.3192,74.0672 45.5,72.5 Z"/></g>
<g><path style="opacity:1" fill="#fdc84c" d="M 59.5,72.5 C 62.7131,72.19 65.7131,72.5233 68.5,73.5C 66.597,73.7959 64.9303,74.4625 63.5,75.5C 62.8333,75.5 62.1667,75.5 61.5,75.5C 60.4489,74.7777 59.7822,73.7777 59.5,72.5 Z"/></g>
<g><path style="opacity:1" fill="#f2d18d" d="M 158.5,71.5 C 158.5,71.8333 158.5,72.1667 158.5,72.5C 156.565,73.1495 154.565,73.4828 152.5,73.5C 154.102,71.9261 156.102,71.2594 158.5,71.5 Z"/></g>
<g><path style="opacity:1" fill="#fcc74f" d="M 160.5,72.5 C 166.833,72.5 173.167,72.5 179.5,72.5C 179.5,72.8333 179.5,73.1667 179.5,73.5C 179.167,73.5 178.833,73.5 178.5,73.5C 173.199,74.1773 167.866,74.6773 162.5,75C 161.584,75.2784 160.918,75.7784 160.5,76.5C 160.167,76.5 159.833,76.5 159.5,76.5C 158.127,76.6567 156.793,76.49 155.5,76C 156.955,74.3743 158.622,73.2076 160.5,72.5 Z"/></g>
<g><path style="opacity:1" fill="#fdc552" d="M 178.5,73.5 C 179.5,74.8333 180.5,76.1667 181.5,77.5C 175.438,75.5799 169.438,75.2466 163.5,76.5C 162.5,76.5 161.5,76.5 160.5,76.5C 160.918,75.7784 161.584,75.2784 162.5,75C 167.866,74.6773 173.199,74.1773 178.5,73.5 Z"/></g>
<g><path style="opacity:1" fill="#f9d384" d="M 179.5,71.5 C 182.496,72.2703 185.163,73.6036 187.5,75.5C 187.167,75.5 186.833,75.5 186.5,75.5C 183.99,75.0733 181.657,74.4067 179.5,73.5C 179.5,73.1667 179.5,72.8333 179.5,72.5C 179.5,72.1667 179.5,71.8333 179.5,71.5 Z"/></g>
<g><path style="opacity:1" fill="#fec44f" d="M 178.5,73.5 C 178.833,73.5 179.167,73.5 179.5,73.5C 181.657,74.4067 183.99,75.0733 186.5,75.5C 186.306,77.9118 184.973,78.9118 182.5,78.5C 181.833,78.5 181.5,78.1667 181.5,77.5C 180.5,76.1667 179.5,74.8333 178.5,73.5 Z"/></g>
<g><path style="opacity:1" fill="#fcc654" d="M 45.5,72.5 C 44.3192,74.0672 42.6526,74.9005 40.5,75C 41.9047,76.2692 43.5714,76.7692 45.5,76.5C 44.4489,77.2223 43.7822,78.2223 43.5,79.5C 43.1667,79.5 42.8333,79.5 42.5,79.5C 40.2646,79.7947 38.2646,79.4614 36.5,78.5C 37.241,76.6458 38.241,74.9791 39.5,73.5C 41.5648,73.4828 43.5648,73.1495 45.5,72.5 Z"/></g>
<g><path style="opacity:1" fill="#f5c96c" d="M 52.5,76.5 C 55.2869,75.5233 58.2869,75.19 61.5,75.5C 62.1667,75.5 62.8333,75.5 63.5,75.5C 65.6074,76.4682 67.9407,76.8016 70.5,76.5C 70.894,78.7099 72.2273,80.0432 74.5,80.5C 74.5,80.8333 74.5,81.1667 74.5,81.5C 70.0092,79.5901 65.3425,78.2568 60.5,77.5C 58.0521,76.5269 55.3854,76.1936 52.5,76.5 Z"/></g>
<g><path style="opacity:1" fill="#fdc451" d="M 68.5,73.5 C 70.403,73.7959 72.0697,74.4625 73.5,75.5C 72.209,75.2627 71.209,75.596 70.5,76.5C 67.9407,76.8016 65.6074,76.4682 63.5,75.5C 64.9303,74.4625 66.597,73.7959 68.5,73.5 Z"/></g>
<g><path style="opacity:0.953" fill="#f9daa5" d="M 74.5,73.5 C 76.3684,74.2632 78.0351,75.2632 79.5,76.5C 78.1667,76.5 76.8333,76.5 75.5,76.5C 75.5,75.8333 75.1667,75.5 74.5,75.5C 74.5,74.8333 74.5,74.1667 74.5,73.5 Z"/></g>
<g><path style="opacity:1" fill="#fcc75b" d="M 158.5,72.5 C 159.167,72.5 159.833,72.5 160.5,72.5C 158.622,73.2076 156.955,74.3743 155.5,76C 156.793,76.49 158.127,76.6567 159.5,76.5C 157.781,77.0221 156.448,78.0221 155.5,79.5C 154.791,80.404 153.791,80.7373 152.5,80.5C 153.234,79.2921 153.567,77.9587 153.5,76.5C 152.167,76.5 150.833,76.5 149.5,76.5C 150.551,75.7777 151.218,74.7777 151.5,73.5C 151.833,73.5 152.167,73.5 152.5,73.5C 154.565,73.4828 156.565,73.1495 158.5,72.5 Z"/></g>
<g><path style="opacity:1" fill="#f6c96e" d="M 163.5,76.5 C 169.438,75.2466 175.438,75.5799 181.5,77.5C 181.5,78.1667 181.833,78.5 182.5,78.5C 182.833,79.1667 183.167,79.8333 183.5,80.5C 179.603,79.0901 175.603,78.0901 171.5,77.5C 169.052,76.5269 166.385,76.1936 163.5,76.5 Z"/></g>
<g><path style="opacity:0.176" fill="#fbe2a2" d="M 45.5,76.5 C 47.8333,76.5 50.1667,76.5 52.5,76.5C 55.3854,76.1936 58.0521,76.5269 60.5,77.5C 54.6973,77.2087 49.0306,77.8754 43.5,79.5C 43.7822,78.2223 44.4489,77.2223 45.5,76.5 Z"/></g>
<g><path style="opacity:1" fill="#fdc74b" d="M 133.5,72.5 C 134.9,73.1001 135.9,74.1001 136.5,75.5C 136.5,76.8333 136.5,78.1667 136.5,79.5C 136.167,79.5 135.833,79.5 135.5,79.5C 134.222,79.2178 133.222,78.5511 132.5,77.5C 132.216,75.5853 132.549,73.9187 133.5,72.5 Z"/></g>
<g><path style="opacity:1" fill="#f5dc9f" d="M 188.5,75.5 C 190.754,76.1237 192.421,77.457 193.5,79.5C 191.205,78.8645 189.539,77.5311 188.5,75.5 Z"/></g>
<g><path style="opacity:1" fill="#f7d27f" d="M 39.5,73.5 C 38.241,74.9791 37.241,76.6458 36.5,78.5C 36.1667,78.5 35.8333,78.5 35.5,78.5C 34.1667,78.5 32.8333,78.5 31.5,78.5C 33.4844,75.8361 36.1511,74.1695 39.5,73.5 Z"/></g>
<g><path style="opacity:1" fill="#fbc84f" d="M 73.5,75.5 C 73.8333,75.5 74.1667,75.5 74.5,75.5C 75.1667,75.5 75.5,75.8333 75.5,76.5C 76.8021,78.0276 78.4687,79.0276 80.5,79.5C 78.5,79.8333 76.5,80.1667 74.5,80.5C 72.2273,80.0432 70.894,78.7099 70.5,76.5C 71.209,75.596 72.209,75.2627 73.5,75.5 Z"/></g>
<g><path style="opacity:1" fill="#f7cb6c" d="M 75.5,76.5 C 76.8333,76.5 78.1667,76.5 79.5,76.5C 81.8816,77.3507 83.8816,78.684 85.5,80.5C 83.5853,80.7845 81.9187,80.4511 80.5,79.5C 78.4687,79.0276 76.8021,78.0276 75.5,76.5 Z"/></g>
<g><path style="opacity:0.994" fill="#f4d07c" d="M 137.5,68.5 C 138.391,69.2613 139.058,70.2613 139.5,71.5C 138.725,74.4836 138.059,77.4836 137.5,80.5C 137.842,81.3382 138.508,81.6716 139.5,81.5C 138.791,82.404 137.791,82.7373 136.5,82.5C 136.5,81.5 136.5,80.5 136.5,79.5C 136.5,78.1667 136.5,76.8333 136.5,75.5C 137.461,73.7354 137.795,71.7354 137.5,69.5C 137.5,69.1667 137.5,68.8333 137.5,68.5 Z"/></g>
<g><path style="opacity:1" fill="#fdc64d" d="M 149.5,76.5 C 150.833,76.5 152.167,76.5 153.5,76.5C 153.567,77.9587 153.234,79.2921 152.5,80.5C 149.43,80.3066 148.43,78.9733 149.5,76.5 Z"/></g>
<g><path style="opacity:1" fill="#f9d890" d="M 159.5,76.5 C 159.833,76.5 160.167,76.5 160.5,76.5C 161.5,76.5 162.5,76.5 163.5,76.5C 166.385,76.1936 169.052,76.5269 171.5,77.5C 166.054,77.3642 160.72,78.0309 155.5,79.5C 156.448,78.0221 157.781,77.0221 159.5,76.5 Z"/></g>
<g><path style="opacity:1" fill="#fad27e" d="M 35.5,78.5 C 35.8333,78.5 36.1667,78.5 36.5,78.5C 38.2646,79.4614 40.2646,79.7947 42.5,79.5C 39.3579,81.5805 36.3579,83.9138 33.5,86.5C 35.1197,83.858 35.7863,81.1913 35.5,78.5 Z"/></g>
<g><path style="opacity:1" fill="#fac966" d="M 151.5,73.5 C 151.218,74.7777 150.551,75.7777 149.5,76.5C 148.43,78.9733 149.43,80.3066 152.5,80.5C 151.486,81.6737 150.153,82.3404 148.5,82.5C 148.167,82.5 147.833,82.5 147.5,82.5C 146.965,80.5544 145.632,79.5544 143.5,79.5C 145.041,78.3332 146.375,76.9999 147.5,75.5C 148.514,74.3263 149.847,73.6596 151.5,73.5 Z"/></g>
<g><path style="opacity:1" fill="#fbc755" d="M 186.5,75.5 C 186.833,75.5 187.167,75.5 187.5,75.5C 187.833,75.5 188.167,75.5 188.5,75.5C 189.539,77.5311 191.205,78.8645 193.5,79.5C 193.733,81.0618 194.4,82.3951 195.5,83.5C 195.414,84.4959 195.748,85.3292 196.5,86C 195.584,86.2784 194.918,86.7784 194.5,87.5C 193.833,87.5 193.167,87.5 192.5,87.5C 193.413,85.9139 193.413,84.4139 192.5,83C 189.487,82.0911 186.487,81.2578 183.5,80.5C 183.167,79.8333 182.833,79.1667 182.5,78.5C 184.973,78.9118 186.306,77.9118 186.5,75.5 Z"/></g>
<g><path style="opacity:1" fill="#f9cc6a" d="M 80.5,79.5 C 81.9187,80.4511 83.5853,80.7845 85.5,80.5C 87.8525,81.3403 89.8525,82.6736 91.5,84.5C 91.1667,84.5 90.8333,84.5 90.5,84.5C 89.609,83.8902 88.609,83.5569 87.5,83.5C 84.713,81.7469 81.713,81.4135 78.5,82.5C 78.8627,83.1835 79.1961,83.8501 79.5,84.5C 77.5659,83.8897 75.8993,82.8897 74.5,81.5C 74.5,81.1667 74.5,80.8333 74.5,80.5C 76.5,80.1667 78.5,79.8333 80.5,79.5 Z"/></g>
<g><path style="opacity:0.773" fill="#ffeac5" d="M 31.5,78.5 C 30.7377,80.2624 29.4044,81.2624 27.5,81.5C 28.2623,79.7376 29.5956,78.7376 31.5,78.5 Z"/></g>
<g><path style="opacity:1" fill="#fdc74d" d="M 132.5,77.5 C 133.222,78.5511 134.222,79.2178 135.5,79.5C 135.5,81.1667 135.5,82.8333 135.5,84.5C 132.916,83.9517 131.916,82.285 132.5,79.5C 132.5,78.8333 132.5,78.1667 132.5,77.5 Z"/></g>
<g><path style="opacity:1" fill="#f4d58b" d="M 147.5,75.5 C 146.375,76.9999 145.041,78.3332 143.5,79.5C 142.395,80.6005 141.062,81.2671 139.5,81.5C 138.508,81.6716 137.842,81.3382 137.5,80.5C 140.85,78.8039 144.183,77.1373 147.5,75.5 Z"/></g>
<g><path style="opacity:1" fill="#f6d48b" d="M 193.5,79.5 C 196.573,81.5691 198.906,84.2358 200.5,87.5C 199.833,87.1667 199.167,86.8333 198.5,86.5C 197.833,85.1667 196.833,84.1667 195.5,83.5C 194.4,82.3951 193.733,81.0618 193.5,79.5 Z"/></g>
<g><path style="opacity:1" fill="#fbc658" d="M 31.5,78.5 C 32.8333,78.5 34.1667,78.5 35.5,78.5C 35.7863,81.1913 35.1197,83.858 33.5,86.5C 33.1667,86.5 32.8333,86.5 32.5,86.5C 32.1667,86.5 31.8333,86.5 31.5,86.5C 31.3538,83.4502 30.0204,82.4502 27.5,83.5C 27.5,82.8333 27.5,82.1667 27.5,81.5C 29.4044,81.2624 30.7377,80.2624 31.5,78.5 Z"/></g>
<g><path style="opacity:1" fill="#fec152" d="M 145.5,82.5 C 144.151,83.9525 142.485,84.9525 140.5,85.5C 139.798,84.8843 138.798,84.8843 137.5,85.5C 138.737,83.9032 140.404,82.7365 142.5,82C 143.749,81.2599 144.749,81.4265 145.5,82.5 Z"/></g>
<g><path style="opacity:1" fill="#f9d383" d="M 145.5,82.5 C 146.167,82.5 146.833,82.5 147.5,82.5C 147.833,82.5 148.167,82.5 148.5,82.5C 146.853,84.3264 144.853,85.6597 142.5,86.5C 141.662,86.8417 141.328,87.5084 141.5,88.5C 140.596,87.791 140.263,86.791 140.5,85.5C 142.485,84.9525 144.151,83.9525 145.5,82.5 Z"/></g>
<g><path style="opacity:1" fill="#fac86b" d="M 183.5,80.5 C 186.487,81.2578 189.487,82.0911 192.5,83C 193.413,84.4139 193.413,85.9139 192.5,87.5C 189.28,85.3971 186.28,83.0638 183.5,80.5 Z"/></g>
<g><path style="opacity:1" fill="#fbc84f" d="M 31.5,86.5 C 31.5,87.1667 31.1667,87.5 30.5,87.5C 29.1667,87.5 27.8333,87.5 26.5,87.5C 26.4326,86.0413 26.7659,84.7079 27.5,83.5C 30.0204,82.4502 31.3538,83.4502 31.5,86.5 Z"/></g>
<g><path style="opacity:1" fill="#fdc652" d="M 135.5,79.5 C 135.833,79.5 136.167,79.5 136.5,79.5C 136.5,80.5 136.5,81.5 136.5,82.5C 137.791,82.7373 138.791,82.404 139.5,81.5C 141.062,81.2671 142.395,80.6005 143.5,79.5C 145.632,79.5544 146.965,80.5544 147.5,82.5C 146.833,82.5 146.167,82.5 145.5,82.5C 144.749,81.4265 143.749,81.2599 142.5,82C 140.404,82.7365 138.737,83.9032 137.5,85.5C 137.672,86.4916 137.338,87.1583 136.5,87.5C 135.89,86.609 135.557,85.609 135.5,84.5C 135.5,82.8333 135.5,81.1667 135.5,79.5 Z"/></g>
<g><path style="opacity:1" fill="#fdc64e" d="M 87.5,83.5 C 88.609,83.5569 89.609,83.8902 90.5,84.5C 90.1667,85.8333 89.8333,87.1667 89.5,88.5C 88.8333,88.5 88.1667,88.5 87.5,88.5C 87.5,87.5 87.5,86.5 87.5,85.5C 83.5,84.8333 83.5,84.1667 87.5,83.5 Z"/></g>
<g><path style="opacity:1" fill="#fbca66" d="M 132.5,79.5 C 131.916,82.285 132.916,83.9517 135.5,84.5C 135.557,85.609 135.89,86.609 136.5,87.5C 135.833,87.5 135.5,87.8333 135.5,88.5C 134.292,89.2341 132.959,89.5674 131.5,89.5C 131.657,88.1266 131.49,86.7932 131,85.5C 130.505,87.4727 130.338,89.4727 130.5,91.5C 130.167,91.5 129.833,91.5 129.5,91.5C 128.377,89.312 128.377,86.9787 129.5,84.5C 131.028,83.1979 132.028,81.5313 132.5,79.5 Z"/></g>
<g><path style="opacity:1" fill="#fac754" d="M 87.5,83.5 C 83.5,84.1667 83.5,84.8333 87.5,85.5C 87.5,86.5 87.5,87.5 87.5,88.5C 86.609,87.8902 85.609,87.5569 84.5,87.5C 83.656,85.2407 81.9893,84.2407 79.5,84.5C 79.1961,83.8501 78.8627,83.1835 78.5,82.5C 81.713,81.4135 84.713,81.7469 87.5,83.5 Z"/></g>
<g><path style="opacity:0.859" fill="#f6d283" d="M 79.5,84.5 C 81.9893,84.2407 83.656,85.2407 84.5,87.5C 82.5659,86.8897 80.8993,85.8897 79.5,84.5 Z"/></g>
<g><path style="opacity:1" fill="#fbc653" d="M 90.5,84.5 C 90.8333,84.5 91.1667,84.5 91.5,84.5C 91.5,85.8333 91.5,87.1667 91.5,88.5C 94.3126,88.0246 96.3126,89.0246 97.5,91.5C 96.1667,92.1667 95.1667,93.1667 94.5,94.5C 94.1667,94.5 93.8333,94.5 93.5,94.5C 91.7104,92.7278 90.3771,90.7278 89.5,88.5C 89.8333,87.1667 90.1667,85.8333 90.5,84.5 Z"/></g>
<g><path style="opacity:1" fill="#fdc450" d="M 195.5,83.5 C 196.833,84.1667 197.833,85.1667 198.5,86.5C 198.771,88.3797 198.104,89.713 196.5,90.5C 196.218,89.2223 195.551,88.2223 194.5,87.5C 194.918,86.7784 195.584,86.2784 196.5,86C 195.748,85.3292 195.414,84.4959 195.5,83.5 Z"/></g>
<g><path style="opacity:1" fill="#f9cd76" d="M 27.5,81.5 C 27.5,82.1667 27.5,82.8333 27.5,83.5C 26.7659,84.7079 26.4326,86.0413 26.5,87.5C 27.8333,87.5 29.1667,87.5 30.5,87.5C 30.5,88.1667 30.5,88.8333 30.5,89.5C 29.1535,91.5368 27.8202,93.5368 26.5,95.5C 26.9926,93.1944 27.3259,90.861 27.5,88.5C 25.3364,88.7215 23.6697,89.7215 22.5,91.5C 22.1583,92.3382 21.4916,92.6716 20.5,92.5C 22.0875,88.3171 24.4208,84.6505 27.5,81.5 Z"/></g>
<g><path style="opacity:0.02" fill="#fbe9b2" d="M 31.5,86.5 C 31.8333,86.5 32.1667,86.5 32.5,86.5C 32.573,88.0269 31.9063,89.0269 30.5,89.5C 30.5,88.8333 30.5,88.1667 30.5,87.5C 31.1667,87.5 31.5,87.1667 31.5,86.5 Z"/></g>
<g><path style="opacity:1" fill="#fbc852" d="M 140.5,85.5 C 140.263,86.791 140.596,87.791 141.5,88.5C 140.5,89.1667 139.5,89.8333 138.5,90.5C 136.821,90.7148 135.821,90.0481 135.5,88.5C 135.5,87.8333 135.833,87.5 136.5,87.5C 137.338,87.1583 137.672,86.4916 137.5,85.5C 138.798,84.8843 139.798,84.8843 140.5,85.5 Z"/></g>
<g><path style="opacity:0.278" fill="#fdf2bb" d="M 142.5,86.5 C 145.087,87.7487 147.754,88.7487 150.5,89.5C 147.455,89.4921 144.455,89.1587 141.5,88.5C 141.328,87.5084 141.662,86.8417 142.5,86.5 Z"/></g>
<g><path style="opacity:1" fill="#f6cd74" d="M 84.5,87.5 C 85.609,87.5569 86.609,87.8902 87.5,88.5C 88.1667,88.5 88.8333,88.5 89.5,88.5C 90.3771,90.7278 91.7104,92.7278 93.5,94.5C 90.2085,92.5419 87.2085,90.2085 84.5,87.5 Z"/></g>
<g><path style="opacity:1" fill="#f5d386" d="M 91.5,84.5 C 95.4819,87.1518 99.1486,90.1518 102.5,93.5C 102.167,93.5 101.833,93.5 101.5,93.5C 100.167,92.8333 98.8333,92.1667 97.5,91.5C 96.3126,89.0246 94.3126,88.0246 91.5,88.5C 91.5,87.1667 91.5,85.8333 91.5,84.5 Z"/></g>
<g><path style="opacity:1" fill="#f6cd7b" d="M 192.5,87.5 C 193.167,87.5 193.833,87.5 194.5,87.5C 195.551,88.2223 196.218,89.2223 196.5,90.5C 197.038,92.1172 197.371,93.7839 197.5,95.5C 195.847,92.8695 194.181,90.2028 192.5,87.5 Z"/></g>
<g><path style="opacity:1" fill="#f9c65a" d="M 141.5,88.5 C 144.455,89.1587 147.455,89.4921 150.5,89.5C 151.492,89.3284 152.158,89.6618 152.5,90.5C 149.5,90.5 146.5,90.5 143.5,90.5C 143.5,91.8333 143.5,93.1667 143.5,94.5C 141.833,93.8333 140.167,93.1667 138.5,92.5C 139.506,91.6043 139.506,90.9377 138.5,90.5C 139.5,89.8333 140.5,89.1667 141.5,88.5 Z"/></g>
<g><path style="opacity:0.616" fill="#fddfa0" d="M 200.5,87.5 C 201.906,87.9731 202.573,88.9731 202.5,90.5C 201.094,90.0269 200.427,89.0269 200.5,87.5 Z"/></g>
<g><path style="opacity:1" fill="#fcc64d" d="M 135.5,88.5 C 135.821,90.0481 136.821,90.7148 138.5,90.5C 139.506,90.9377 139.506,91.6043 138.5,92.5C 135.721,92.7214 133.054,92.388 130.5,91.5C 130.338,89.4727 130.505,87.4727 131,85.5C 131.49,86.7932 131.657,88.1266 131.5,89.5C 132.959,89.5674 134.292,89.2341 135.5,88.5 Z"/></g>
<g><path style="opacity:1" fill="#fdc54e" d="M 152.5,90.5 C 152.5,91.8333 152.5,93.1667 152.5,94.5C 149.5,94.5 146.5,94.5 143.5,94.5C 143.5,93.1667 143.5,91.8333 143.5,90.5C 146.5,90.5 149.5,90.5 152.5,90.5 Z"/></g>
<g><path style="opacity:1" fill="#fcc750" d="M 26.5,95.5 C 25.5041,95.4142 24.6708,95.7476 24,96.5C 23.8019,94.6183 23.3019,92.9516 22.5,91.5C 23.6697,89.7215 25.3364,88.7215 27.5,88.5C 27.3259,90.861 26.9926,93.1944 26.5,95.5 Z"/></g>
<g><path style="opacity:1" fill="#f5d48b" d="M 152.5,90.5 C 154.273,91.3143 154.773,92.6476 154,94.5C 152.527,96.0071 150.693,96.6738 148.5,96.5C 142.482,95.4413 136.482,94.2746 130.5,93C 129.944,92.6174 129.611,92.1174 129.5,91.5C 129.833,91.5 130.167,91.5 130.5,91.5C 133.054,92.388 135.721,92.7214 138.5,92.5C 140.167,93.1667 141.833,93.8333 143.5,94.5C 146.5,94.5 149.5,94.5 152.5,94.5C 152.5,93.1667 152.5,91.8333 152.5,90.5 Z"/></g>
<g><path style="opacity:1" fill="#fbc755" d="M 198.5,86.5 C 199.167,86.8333 199.833,87.1667 200.5,87.5C 200.427,89.0269 201.094,90.0269 202.5,90.5C 202.5,91.5 202.5,92.5 202.5,93.5C 201.833,94.5 201.167,95.5 200.5,96.5C 199.791,95.596 198.791,95.2627 197.5,95.5C 197.371,93.7839 197.038,92.1172 196.5,90.5C 198.104,89.713 198.771,88.3797 198.5,86.5 Z"/></g>
<g><path style="opacity:1" fill="#fdc74e" d="M 97.5,91.5 C 98.8333,92.1667 100.167,92.8333 101.5,93.5C 101.66,95.1992 101.494,96.8659 101,98.5C 100.329,97.7476 99.4959,97.4142 98.5,97.5C 97.1667,96.5 95.8333,95.5 94.5,94.5C 95.1667,93.1667 96.1667,92.1667 97.5,91.5 Z"/></g>
<g><path style="opacity:1" fill="#f7d28b" d="M 202.5,90.5 C 204.642,93.8004 205.975,97.467 206.5,101.5C 206.167,101.5 205.833,101.5 205.5,101.5C 205.204,99.597 204.537,97.9303 203.5,96.5C 203.443,95.391 203.11,94.391 202.5,93.5C 202.5,92.5 202.5,91.5 202.5,90.5 Z"/></g>
<g><path style="opacity:1" fill="#f6d48d" d="M 93.5,94.5 C 93.8333,94.5 94.1667,94.5 94.5,94.5C 95.8333,95.5 97.1667,96.5 98.5,97.5C 99.1098,98.391 99.4431,99.391 99.5,100.5C 97.1667,98.8333 95.1667,96.8333 93.5,94.5 Z"/></g>
<g><path style="opacity:1" fill="#f9cf75" d="M 22.5,91.5 C 23.3019,92.9516 23.8019,94.6183 24,96.5C 24.6708,95.7476 25.5041,95.4142 26.5,95.5C 23.5972,105.287 23.9306,114.954 27.5,124.5C 26.1429,123.41 25.1429,122.076 24.5,120.5C 23.8333,118.5 23.1667,116.5 22.5,114.5C 22.8205,109.305 22.4872,104.305 21.5,99.5C 20.609,100.11 19.609,100.443 18.5,100.5C 19.7736,98.0075 20.4403,95.3408 20.5,92.5C 21.4916,92.6716 22.1583,92.3382 22.5,91.5 Z"/></g>
<g><path style="opacity:1" fill="#fdc45a" d="M 101.5,93.5 C 101.833,93.5 102.167,93.5 102.5,93.5C 103.614,96.1771 103.614,98.8438 102.5,101.5C 101.583,100.873 100.583,100.539 99.5,100.5C 99.4431,99.391 99.1098,98.391 98.5,97.5C 99.4959,97.4142 100.329,97.7476 101,98.5C 101.494,96.8659 101.66,95.1992 101.5,93.5 Z"/></g>
<g><path style="opacity:1" fill="#fcc74f" d="M 202.5,93.5 C 203.11,94.391 203.443,95.391 203.5,96.5C 202.492,98.5439 201.492,100.544 200.5,102.5C 200.5,100.5 200.5,98.5 200.5,96.5C 201.167,95.5 201.833,94.5 202.5,93.5 Z"/></g>
<g><path style="opacity:1" fill="#f9cc6e" d="M 102.5,93.5 C 105.167,95.5 107.5,97.8333 109.5,100.5C 109.5,101.167 109.5,101.833 109.5,102.5C 107.69,101.045 106.023,101.212 104.5,103C 105.308,104.706 106.641,105.539 108.5,105.5C 108.768,107.099 108.434,108.432 107.5,109.5C 104.833,106.5 102.167,103.5 99.5,100.5C 100.583,100.539 101.583,100.873 102.5,101.5C 103.614,98.8438 103.614,96.1771 102.5,93.5 Z"/></g>
<g><path style="opacity:1" fill="#fac65c" d="M 203.5,96.5 C 204.537,97.9303 205.204,99.597 205.5,101.5C 205.5,101.833 205.5,102.167 205.5,102.5C 204.778,102.082 204.278,101.416 204,100.5C 202.585,103.958 202.085,107.625 202.5,111.5C 202.167,111.5 201.833,111.5 201.5,111.5C 201.736,108.391 201.403,105.391 200.5,102.5C 201.492,100.544 202.492,98.5439 203.5,96.5 Z"/></g>
<g><path style="opacity:1" fill="#f6d587" d="M 119.5,106.5 C 119.259,104.114 119.925,102.114 121.5,100.5C 121.53,99.5028 121.03,98.8361 120,98.5C 118.862,98.9891 117.695,99.3225 116.5,99.5C 118.365,96.4119 120.531,96.0786 123,98.5C 124.222,102.246 123.056,104.913 119.5,106.5 Z"/></g>
<g><path style="opacity:1" fill="#fdc74c" d="M 21.5,99.5 C 21.7711,101.821 21.1045,103.821 19.5,105.5C 20.6119,106.265 21.2786,107.265 21.5,108.5C 20.609,107.89 19.609,107.557 18.5,107.5C 18.5,105.167 18.5,102.833 18.5,100.5C 19.609,100.443 20.609,100.11 21.5,99.5 Z"/></g>
<g><path style="opacity:1" fill="#f9cf76" d="M 109.5,100.5 C 110.482,101.141 111.482,101.807 112.5,102.5C 113.518,101.807 114.518,101.141 115.5,100.5C 115.532,102.619 114.532,103.952 112.5,104.5C 111.5,104.5 110.5,104.5 109.5,104.5C 109.5,103.833 109.5,103.167 109.5,102.5C 109.5,101.833 109.5,101.167 109.5,100.5 Z"/></g>
<g><path style="opacity:1" fill="#f8c857" d="M 121.5,100.5 C 119.833,100.5 118.167,100.5 116.5,100.5C 116.634,102.292 116.301,103.958 115.5,105.5C 114.209,105.737 113.209,105.404 112.5,104.5C 114.532,103.952 115.532,102.619 115.5,100.5C 115.5,99.8333 115.833,99.5 116.5,99.5C 117.695,99.3225 118.862,98.9891 120,98.5C 121.03,98.8361 121.53,99.5028 121.5,100.5 Z"/></g>
<g><path style="opacity:1" fill="#fdc456" d="M 109.5,104.5 C 110.5,104.5 111.5,104.5 112.5,104.5C 113.209,105.404 114.209,105.737 115.5,105.5C 115.5,106.167 115.5,106.833 115.5,107.5C 114.265,107.721 113.265,108.388 112.5,109.5C 111.818,108.757 111.151,108.091 110.5,107.5C 109.89,106.609 109.557,105.609 109.5,104.5 Z"/></g>
<g><path style="opacity:1" fill="#fec747" d="M 21.5,99.5 C 22.4872,104.305 22.8205,109.305 22.5,114.5C 22.1667,114.5 21.8333,114.5 21.5,114.5C 21.5,112.5 21.5,110.5 21.5,108.5C 21.2786,107.265 20.6119,106.265 19.5,105.5C 21.1045,103.821 21.7711,101.821 21.5,99.5 Z"/></g>
<g><path style="opacity:1" fill="#f7c853" d="M 109.5,102.5 C 109.5,103.167 109.5,103.833 109.5,104.5C 109.557,105.609 109.89,106.609 110.5,107.5C 109.662,107.842 109.328,108.508 109.5,109.5C 109.5,110.833 108.833,111.5 107.5,111.5C 107.5,110.833 107.5,110.167 107.5,109.5C 108.434,108.432 108.768,107.099 108.5,105.5C 106.641,105.539 105.308,104.706 104.5,103C 106.023,101.212 107.69,101.045 109.5,102.5 Z"/></g>
<g><path style="opacity:1" fill="#f6cc79" d="M 205.5,101.5 C 205.833,101.5 206.167,101.5 206.5,101.5C 207.833,106.5 207.833,111.5 206.5,116.5C 205.833,116.833 205.167,117.167 204.5,117.5C 204.833,116.167 205.167,114.833 205.5,113.5C 205.5,109.833 205.5,106.167 205.5,102.5C 205.5,102.167 205.5,101.833 205.5,101.5 Z"/></g>
<g><path style="opacity:0.941" fill="#f3d07f" d="M 197.5,95.5 C 198.791,95.2627 199.791,95.596 200.5,96.5C 200.5,98.5 200.5,100.5 200.5,102.5C 201.403,105.391 201.736,108.391 201.5,111.5C 201.923,113.781 201.256,115.448 199.5,116.5C 200.698,109.346 200.031,102.346 197.5,95.5 Z"/></g>
<g><path style="opacity:1" fill="#f5cf80" d="M 20.5,92.5 C 20.4403,95.3408 19.7736,98.0075 18.5,100.5C 18.5,102.833 18.5,105.167 18.5,107.5C 18.5,109.833 18.5,112.167 18.5,114.5C 18.8333,115.833 19.1667,117.167 19.5,118.5C 18.8333,118.167 18.1667,117.833 17.5,117.5C 15.6077,108.705 16.6077,100.371 20.5,92.5 Z"/></g>
<g><path style="opacity:1" fill="#fec64a" d="M 110.5,107.5 C 111.151,108.091 111.818,108.757 112.5,109.5C 113.265,108.388 114.265,107.721 115.5,107.5C 115.169,109.322 114.502,110.989 113.5,112.5C 113.167,112.5 112.833,112.5 112.5,112.5C 111.833,111.167 110.833,110.167 109.5,109.5C 109.328,108.508 109.662,107.842 110.5,107.5 Z"/></g>
<g><path style="opacity:1" fill="#fac651" d="M 121.5,100.5 C 119.925,102.114 119.259,104.114 119.5,106.5C 119.5,107.167 119.167,107.5 118.5,107.5C 117.414,107.62 116.747,108.287 116.5,109.5C 117.225,110.867 117.892,112.2 118.5,113.5C 118.316,115.925 117.649,115.925 116.5,113.5C 115.893,113.624 115.56,113.957 115.5,114.5C 114.167,114.5 113.5,113.833 113.5,112.5C 114.502,110.989 115.169,109.322 115.5,107.5C 115.5,106.833 115.5,106.167 115.5,105.5C 116.301,103.958 116.634,102.292 116.5,100.5C 118.167,100.5 119.833,100.5 121.5,100.5 Z"/></g>
<g><path style="opacity:1" fill="#fdc64f" d="M 205.5,102.5 C 205.5,106.167 205.5,109.833 205.5,113.5C 204.504,113.414 203.671,113.748 203,114.5C 202.517,113.552 202.351,112.552 202.5,111.5C 202.085,107.625 202.585,103.958 204,100.5C 204.278,101.416 204.778,102.082 205.5,102.5 Z"/></g>
<g><path style="opacity:1" fill="#fec64e" d="M 18.5,107.5 C 19.609,107.557 20.609,107.89 21.5,108.5C 21.5,110.5 21.5,112.5 21.5,114.5C 20.5,114.5 19.5,114.5 18.5,114.5C 18.5,112.167 18.5,109.833 18.5,107.5 Z"/></g>
<g><path style="opacity:1" fill="#f6d387" d="M 118.5,107.5 C 118.389,108.117 118.056,108.617 117.5,109C 121.037,112.369 124.371,115.869 127.5,119.5C 125.801,119.473 124.467,118.806 123.5,117.5C 123.167,117.5 122.833,117.5 122.5,117.5C 121.833,115.5 120.5,114.167 118.5,113.5C 117.892,112.2 117.225,110.867 116.5,109.5C 116.747,108.287 117.414,107.62 118.5,107.5 Z"/></g>
<g><path style="opacity:1" fill="#fcc551" d="M 109.5,109.5 C 110.833,110.167 111.833,111.167 112.5,112.5C 111.167,112.5 110.5,113.167 110.5,114.5C 106.629,113.382 105.629,114.715 107.5,118.5C 103.173,118.748 101.839,117.082 103.5,113.5C 105.199,113.473 106.533,112.806 107.5,111.5C 108.833,111.5 109.5,110.833 109.5,109.5 Z"/></g>
<g><path style="opacity:1" fill="#f4d586" d="M 107.5,109.5 C 107.5,110.167 107.5,110.833 107.5,111.5C 106.533,112.806 105.199,113.473 103.5,113.5C 104.5,111.833 105.833,110.5 107.5,109.5 Z"/></g>
<g><path style="opacity:1" fill="#f9cd70" d="M 110.5,114.5 C 110.5,115.167 110.5,115.833 110.5,116.5C 109.833,117.833 108.833,118.833 107.5,119.5C 107.5,119.167 107.5,118.833 107.5,118.5C 105.629,114.715 106.629,113.382 110.5,114.5 Z"/></g>
<g><path style="opacity:1" fill="#fcc458" d="M 201.5,111.5 C 201.833,111.5 202.167,111.5 202.5,111.5C 202.351,112.552 202.517,113.552 203,114.5C 203.671,113.748 204.504,113.414 205.5,113.5C 205.167,114.833 204.833,116.167 204.5,117.5C 204.741,119.898 204.074,121.898 202.5,123.5C 202.005,121.518 201.505,119.518 201,117.5C 200.768,118.737 200.268,119.737 199.5,120.5C 199.5,119.5 199.5,118.5 199.5,117.5C 199.5,117.167 199.5,116.833 199.5,116.5C 201.256,115.448 201.923,113.781 201.5,111.5 Z"/></g>
<g><path style="opacity:0.996" fill="#f6cf75" d="M 112.5,112.5 C 112.833,112.5 113.167,112.5 113.5,112.5C 113.5,113.833 114.167,114.5 115.5,114.5C 116.931,115.78 117.598,117.447 117.5,119.5C 115.852,118.19 114.186,116.857 112.5,115.5C 111.817,115.863 111.15,116.196 110.5,116.5C 110.5,115.833 110.5,115.167 110.5,114.5C 110.5,113.167 111.167,112.5 112.5,112.5 Z"/></g>
<g><path style="opacity:1" fill="#fbc954" d="M 115.5,114.5 C 115.56,113.957 115.893,113.624 116.5,113.5C 117.649,115.925 118.316,115.925 118.5,113.5C 120.5,114.167 121.833,115.5 122.5,117.5C 119.65,116.072 118.65,116.739 119.5,119.5C 118.833,119.5 118.167,119.5 117.5,119.5C 117.598,117.447 116.931,115.78 115.5,114.5 Z"/></g>
<g><path style="opacity:1" fill="#fcc553" d="M 18.5,114.5 C 19.5,114.5 20.5,114.5 21.5,114.5C 21.8333,114.5 22.1667,114.5 22.5,114.5C 23.1667,116.5 23.8333,118.5 24.5,120.5C 24.6068,122.379 24.1068,122.712 23,121.5C 22.2828,122.044 21.7828,122.711 21.5,123.5C 20.6908,121.972 20.0241,120.306 19.5,118.5C 19.1667,117.167 18.8333,115.833 18.5,114.5 Z"/></g>
<g><path style="opacity:1" fill="#fdc64a" d="M 122.5,117.5 C 122.833,117.5 123.167,117.5 123.5,117.5C 123.843,119.483 123.176,120.817 121.5,121.5C 120.833,120.833 120.167,120.167 119.5,119.5C 118.65,116.739 119.65,116.072 122.5,117.5 Z"/></g>
<g><path style="opacity:1" fill="#fac763" d="M 103.5,113.5 C 101.839,117.082 103.173,118.748 107.5,118.5C 107.5,118.833 107.5,119.167 107.5,119.5C 105.167,119.833 103.833,121.167 103.5,123.5C 102.833,123.5 102.5,123.167 102.5,122.5C 102.206,119.519 100.872,118.852 98.5,120.5C 99.1098,119.609 99.4431,118.609 99.5,117.5C 100.5,115.833 101.833,114.5 103.5,113.5 Z"/></g>
<g><path style="opacity:1" fill="#f4d485" d="M 206.5,116.5 C 206.333,120.673 205,124.34 202.5,127.5C 202.5,126.5 202.5,125.5 202.5,124.5C 202.5,124.167 202.5,123.833 202.5,123.5C 204.074,121.898 204.741,119.898 204.5,117.5C 205.167,117.167 205.833,116.833 206.5,116.5 Z"/></g>
<g><path style="opacity:1" fill="#f3d590" d="M 99.5,117.5 C 99.4431,118.609 99.1098,119.609 98.5,120.5C 97.1667,121.167 96.1667,122.167 95.5,123.5C 93.2512,124.08 91.5846,125.413 90.5,127.5C 89.8333,127.5 89.1667,127.5 88.5,127.5C 91.9362,123.943 95.6029,120.609 99.5,117.5 Z"/></g>
<g><path style="opacity:0.255" fill="#f5e19f" d="M 107.5,119.5 C 106.5,121.167 105.167,122.5 103.5,123.5C 103.833,121.167 105.167,119.833 107.5,119.5 Z"/></g>
<g><path style="opacity:0.996" fill="#f7ce7e" d="M 117.5,119.5 C 118.167,119.5 118.833,119.5 119.5,119.5C 120.167,120.167 120.833,120.833 121.5,121.5C 121.5,122.167 121.5,122.833 121.5,123.5C 119.833,122.5 118.5,121.167 117.5,119.5 Z"/></g>
<g><path style="opacity:1" fill="#fbc759" d="M 24.5,120.5 C 25.1429,122.076 26.1429,123.41 27.5,124.5C 27.5,125.167 27.5,125.833 27.5,126.5C 25.9505,125.559 24.2838,124.893 22.5,124.5C 22.5,123.833 22.1667,123.5 21.5,123.5C 21.7828,122.711 22.2828,122.044 23,121.5C 24.1068,122.712 24.6068,122.379 24.5,120.5 Z"/></g>
<g><path style="opacity:1" fill="#fcc64a" d="M 102.5,122.5 C 101.209,122.263 100.209,122.596 99.5,123.5C 98.2436,123.904 97.0769,124.571 96,125.5C 94.3164,125.317 94.1498,124.65 95.5,123.5C 96.1667,122.167 97.1667,121.167 98.5,120.5C 100.872,118.852 102.206,119.519 102.5,122.5 Z"/></g>
<g><path style="opacity:1" fill="#fbc653" d="M 123.5,117.5 C 124.467,118.806 125.801,119.473 127.5,119.5C 127.88,121.698 127.213,123.365 125.5,124.5C 124.167,124.167 122.833,123.833 121.5,123.5C 121.5,122.833 121.5,122.167 121.5,121.5C 123.176,120.817 123.843,119.483 123.5,117.5 Z"/></g>
<g><path style="opacity:0.878" fill="#f5d89d" d="M 158.5,127.5 C 154.459,124.294 152.459,125.294 152.5,130.5C 149.93,128.823 149.93,126.99 152.5,125C 154.167,124.333 155.833,124.333 157.5,125C 158.252,125.671 158.586,126.504 158.5,127.5 Z"/></g>
<g><path style="opacity:1" fill="#facf76" d="M 202.5,124.5 C 202.5,125.5 202.5,126.5 202.5,127.5C 202.25,129.674 201.25,131.341 199.5,132.5C 199.5,131.5 199.5,130.5 199.5,129.5C 200.096,128.065 200.096,126.398 199.5,124.5C 200.5,124.5 201.5,124.5 202.5,124.5 Z"/></g>
<g><path style="opacity:1" fill="#f8d17e" d="M 17.5,117.5 C 18.1667,117.833 18.8333,118.167 19.5,118.5C 20.0241,120.306 20.6908,121.972 21.5,123.5C 22.1667,123.5 22.5,123.833 22.5,124.5C 22.4551,127.077 23.4551,129.077 25.5,130.5C 26.9313,131.78 27.5979,133.447 27.5,135.5C 22.1086,130.724 18.7753,124.724 17.5,117.5 Z"/></g>
<g><path style="opacity:1" fill="#f9cb64" d="M 95.5,123.5 C 94.1498,124.65 94.3164,125.317 96,125.5C 97.0769,124.571 98.2436,123.904 99.5,123.5C 98.9522,125.532 97.6188,126.532 95.5,126.5C 95.5,127.833 95.5,129.167 95.5,130.5C 93.4504,132.547 91.117,134.214 88.5,135.5C 89.9418,134.18 90.6085,132.514 90.5,130.5C 93.517,130.444 93.8503,130.11 91.5,129.5C 94.2583,128.033 93.925,127.367 90.5,127.5C 91.5846,125.413 93.2512,124.08 95.5,123.5 Z"/></g>
<g><path style="opacity:1" fill="#f7d17d" d="M 102.5,122.5 C 102.5,123.167 102.833,123.5 103.5,123.5C 101.451,126.55 98.7843,128.883 95.5,130.5C 95.5,129.167 95.5,127.833 95.5,126.5C 97.6188,126.532 98.9522,125.532 99.5,123.5C 100.209,122.596 101.209,122.263 102.5,122.5 Z"/></g>
<g><path style="opacity:1" fill="#f5d38c" d="M 121.5,123.5 C 122.833,123.833 124.167,124.167 125.5,124.5C 126.167,125.833 126.833,127.167 127.5,128.5C 124.891,127.557 122.891,125.89 121.5,123.5 Z"/></g>
<g><path style="opacity:1" fill="#fbc759" d="M 127.5,119.5 C 129.167,120.833 130.833,122.167 132.5,123.5C 133.523,125.846 134.523,128.179 135.5,130.5C 132.549,130.713 129.882,130.046 127.5,128.5C 126.833,127.167 126.167,125.833 125.5,124.5C 127.213,123.365 127.88,121.698 127.5,119.5 Z"/></g>
<g><path style="opacity:1" fill="#fbc850" d="M 202.5,123.5 C 202.5,123.833 202.5,124.167 202.5,124.5C 201.5,124.5 200.5,124.5 199.5,124.5C 200.096,126.398 200.096,128.065 199.5,129.5C 198.5,129.5 197.5,129.5 196.5,129.5C 197.216,126.402 198.216,123.402 199.5,120.5C 200.268,119.737 200.768,118.737 201,117.5C 201.505,119.518 202.005,121.518 202.5,123.5 Z"/></g>
<g><path style="opacity:1" fill="#fcc54f" d="M 22.5,124.5 C 24.2838,124.893 25.9505,125.559 27.5,126.5C 27.5,126.833 27.5,127.167 27.5,127.5C 25.9519,127.821 25.2852,128.821 25.5,130.5C 23.4551,129.077 22.4551,127.077 22.5,124.5 Z"/></g>
<g><path style="opacity:1" fill="#f5cf7a" d="M 199.5,117.5 C 199.5,118.5 199.5,119.5 199.5,120.5C 198.216,123.402 197.216,126.402 196.5,129.5C 196.167,129.5 195.833,129.5 195.5,129.5C 193.795,131.192 191.795,132.525 189.5,133.5C 193.861,128.77 197.195,123.437 199.5,117.5 Z"/></g>
<g><path style="opacity:1" fill="#fccc6e" d="M 195.5,129.5 C 195.833,129.5 196.167,129.5 196.5,129.5C 197.5,129.5 198.5,129.5 199.5,129.5C 199.5,130.5 199.5,131.5 199.5,132.5C 198.974,134.23 197.974,135.564 196.5,136.5C 196.007,134.194 195.674,131.861 195.5,129.5 Z"/></g>
<g><path style="opacity:1" fill="#f6ce74" d="M 27.5,124.5 C 30.1421,128.775 33.4754,132.442 37.5,135.5C 36.391,135.443 35.391,135.11 34.5,134.5C 32.7068,132.439 30.3735,131.106 27.5,130.5C 28.7914,129.473 28.7914,128.473 27.5,127.5C 27.5,127.167 27.5,126.833 27.5,126.5C 27.5,125.833 27.5,125.167 27.5,124.5 Z"/></g>
<g><path style="opacity:1" fill="#fcc458" d="M 88.5,127.5 C 89.1667,127.5 89.8333,127.5 90.5,127.5C 93.925,127.367 94.2583,128.033 91.5,129.5C 89.8506,130.473 88.184,131.473 86.5,132.5C 86.3915,130.486 87.0582,128.82 88.5,127.5 Z"/></g>
<g><path style="opacity:1" fill="#f8cf7a" d="M 132.5,123.5 C 136.022,126.75 139.689,129.75 143.5,132.5C 141.092,131.939 138.759,131.439 136.5,131C 135.692,131.308 135.025,131.808 134.5,132.5C 135.193,133.518 135.859,134.518 136.5,135.5C 132.949,133.889 129.949,131.556 127.5,128.5C 129.882,130.046 132.549,130.713 135.5,130.5C 134.523,128.179 133.523,125.846 132.5,123.5 Z"/></g>
<g><path style="opacity:1" fill="#fbc653" d="M 158.5,127.5 C 158.517,129.565 158.85,131.565 159.5,133.5C 158.542,133.047 157.708,132.381 157,131.5C 156.536,132.094 156.369,132.761 156.5,133.5C 155.363,132.211 154.03,131.211 152.5,130.5C 152.459,125.294 154.459,124.294 158.5,127.5 Z"/></g>
<g><path style="opacity:1" fill="#fbc64e" d="M 91.5,129.5 C 93.8503,130.11 93.517,130.444 90.5,130.5C 90.6085,132.514 89.9418,134.18 88.5,135.5C 86.8333,135.5 85.1667,135.5 83.5,135.5C 83.5,135.167 83.5,134.833 83.5,134.5C 84.2223,133.449 85.2223,132.782 86.5,132.5C 88.184,131.473 89.8506,130.473 91.5,129.5 Z"/></g>
<g><path style="opacity:1" fill="#fdc64e" d="M 27.5,127.5 C 28.7914,128.473 28.7914,129.473 27.5,130.5C 30.3735,131.106 32.7068,132.439 34.5,134.5C 33.1439,136.538 31.4773,136.872 29.5,135.5C 28.8333,135.5 28.1667,135.5 27.5,135.5C 27.5979,133.447 26.9313,131.78 25.5,130.5C 25.2852,128.821 25.9519,127.821 27.5,127.5 Z"/></g>
<g><path style="opacity:1" fill="#fac85d" d="M 195.5,129.5 C 195.674,131.861 196.007,134.194 196.5,136.5C 196.5,137.167 196.167,137.5 195.5,137.5C 191.76,137.057 189.76,136.057 189.5,134.5C 189.5,134.167 189.5,133.833 189.5,133.5C 191.795,132.525 193.795,131.192 195.5,129.5 Z"/></g>
<g><path style="opacity:1" fill="#f9ce76" d="M 88.5,127.5 C 87.0582,128.82 86.3915,130.486 86.5,132.5C 85.2223,132.782 84.2223,133.449 83.5,134.5C 81.0971,134.448 78.7638,134.781 76.5,135.5C 80.2229,132.449 84.2229,129.782 88.5,127.5 Z"/></g>
<g><path style="opacity:1" fill="#fcc650" d="M 143.5,132.5 C 144.11,133.391 144.443,134.391 144.5,135.5C 143.209,135.263 142.209,135.596 141.5,136.5C 139.784,136.371 138.117,136.038 136.5,135.5C 135.859,134.518 135.193,133.518 134.5,132.5C 135.025,131.808 135.692,131.308 136.5,131C 138.759,131.439 141.092,131.939 143.5,132.5 Z"/></g>
<g><path style="opacity:1" fill="#f3e4bf" d="M 146.5,133.5 C 147.71,133.932 148.71,134.599 149.5,135.5C 147.821,135.715 146.821,135.048 146.5,133.5 Z"/></g>
<g><path style="opacity:0.784" fill="#f8dea1" d="M 189.5,133.5 C 189.5,133.833 189.5,134.167 189.5,134.5C 188.5,134.833 187.833,135.5 187.5,136.5C 186.833,136.833 186.167,137.167 185.5,137.5C 184.833,137.5 184.167,137.5 183.5,137.5C 185.223,135.782 187.223,134.449 189.5,133.5 Z"/></g>
<g><path style="opacity:1" fill="#facd73" d="M 189.5,134.5 C 189.76,136.057 191.76,137.057 195.5,137.5C 193.853,139.326 191.853,140.66 189.5,141.5C 189.5,141.167 189.5,140.833 189.5,140.5C 189.843,138.517 189.176,137.183 187.5,136.5C 187.833,135.5 188.5,134.833 189.5,134.5 Z"/></g>
<g><path style="opacity:1" fill="#f4d38a" d="M 27.5,135.5 C 28.1667,135.5 28.8333,135.5 29.5,135.5C 31.1667,137.5 32.8333,139.5 34.5,141.5C 31.5726,140.243 29.2393,138.243 27.5,135.5 Z"/></g>
<g><path style="opacity:1" fill="#fac658" d="M 34.5,134.5 C 35.391,135.11 36.391,135.443 37.5,135.5C 37.5,135.833 37.5,136.167 37.5,136.5C 36.0047,136.415 35.0047,137.081 34.5,138.5C 35.8262,139.642 36.8262,140.976 37.5,142.5C 36.609,141.89 35.609,141.557 34.5,141.5C 32.8333,139.5 31.1667,137.5 29.5,135.5C 31.4773,136.872 33.1439,136.538 34.5,134.5 Z"/></g>
<g><path style="opacity:1" fill="#f5cf7c" d="M 143.5,132.5 C 144.609,132.557 145.609,132.89 146.5,133.5C 146.821,135.048 147.821,135.715 149.5,135.5C 150.995,135.989 152.329,136.655 153.5,137.5C 150.37,137.3 147.37,136.634 144.5,135.5C 144.443,134.391 144.11,133.391 143.5,132.5 Z"/></g>
<g><path style="opacity:1" fill="#fdc64f" d="M 159.5,133.5 C 160.158,135.639 161.158,137.639 162.5,139.5C 161.596,140.209 161.263,141.209 161.5,142.5C 160.833,142.833 160.167,143.167 159.5,143.5C 159.784,141.585 159.451,139.919 158.5,138.5C 157.498,136.989 156.831,135.322 156.5,133.5C 156.369,132.761 156.536,132.094 157,131.5C 157.708,132.381 158.542,133.047 159.5,133.5 Z"/></g>
<g><path style="opacity:1" fill="#fcc651" d="M 83.5,134.5 C 83.5,134.833 83.5,135.167 83.5,135.5C 81.0752,135.684 81.0752,136.351 83.5,137.5C 81.6036,138.275 79.937,139.275 78.5,140.5C 78.5,139.167 77.8333,138.5 76.5,138.5C 76.5,137.5 76.5,136.5 76.5,135.5C 78.7638,134.781 81.0971,134.448 83.5,134.5 Z"/></g>
<g><path style="opacity:1" fill="#f7ce76" d="M 136.5,135.5 C 138.117,136.038 139.784,136.371 141.5,136.5C 143.03,137.211 144.363,138.211 145.5,139.5C 146.338,139.842 146.672,140.508 146.5,141.5C 142.495,140.502 139.161,138.502 136.5,135.5 Z"/></g>
<g><path style="opacity:1" fill="#fbc756" d="M 141.5,136.5 C 142.209,135.596 143.209,135.263 144.5,135.5C 147.37,136.634 150.37,137.3 153.5,137.5C 153.5,137.833 153.5,138.167 153.5,138.5C 151.266,138.62 149.099,138.287 147,137.5C 145.97,137.836 145.47,138.503 145.5,139.5C 144.363,138.211 143.03,137.211 141.5,136.5 Z"/></g>
<g><path style="opacity:1" fill="#f9c86a" d="M 152.5,130.5 C 154.03,131.211 155.363,132.211 156.5,133.5C 156.831,135.322 157.498,136.989 158.5,138.5C 158.5,138.833 158.5,139.167 158.5,139.5C 156.833,139.5 155.167,139.5 153.5,139.5C 153.5,139.167 153.5,138.833 153.5,138.5C 153.5,138.167 153.5,137.833 153.5,137.5C 154.239,137.631 154.906,137.464 155.5,137C 154.086,135.007 153.086,132.84 152.5,130.5 Z"/></g>
<g><path style="opacity:1" fill="#f7cd76" d="M 158.5,127.5 C 160.293,129.426 161.293,131.759 161.5,134.5C 161.427,136.027 162.094,137.027 163.5,137.5C 164.11,138.391 164.443,139.391 164.5,140.5C 163.833,140.167 163.167,139.833 162.5,139.5C 161.158,137.639 160.158,135.639 159.5,133.5C 158.85,131.565 158.517,129.565 158.5,127.5 Z"/></g>
<g><path style="opacity:0.361" fill="#fbe4b7" d="M 161.5,134.5 C 162.906,134.973 163.573,135.973 163.5,137.5C 162.094,137.027 161.427,136.027 161.5,134.5 Z"/></g>
<g><path style="opacity:1" fill="#fac84d" d="M 187.5,136.5 C 189.176,137.183 189.843,138.517 189.5,140.5C 188.127,140.657 186.793,140.49 185.5,140C 184.402,139.23 184.402,138.397 185.5,137.5C 186.167,137.167 186.833,136.833 187.5,136.5 Z"/></g>
<g><path style="opacity:1" fill="#fbca76" d="M 76.5,135.5 C 76.5,136.5 76.5,137.5 76.5,138.5C 74.5853,138.216 72.9187,138.549 71.5,139.5C 70.1667,139.5 68.8333,139.5 67.5,139.5C 70.2558,137.796 73.2558,136.463 76.5,135.5 Z"/></g>
<g><path style="opacity:1" fill="#fcc652" d="M 37.5,136.5 C 38.6223,138.556 40.2889,139.889 42.5,140.5C 40.5168,140.157 39.1834,140.824 38.5,142.5C 38.1667,142.5 37.8333,142.5 37.5,142.5C 36.8262,140.976 35.8262,139.642 34.5,138.5C 35.0047,137.081 36.0047,136.415 37.5,136.5 Z"/></g>
<g><path style="opacity:1" fill="#f8d690" d="M 37.5,135.5 C 44.5462,139.842 52.2129,141.509 60.5,140.5C 58.3926,141.468 56.0593,141.802 53.5,141.5C 50.7628,141.599 48.0961,141.265 45.5,140.5C 44.5,140.5 43.5,140.5 42.5,140.5C 40.2889,139.889 38.6223,138.556 37.5,136.5C 37.5,136.167 37.5,135.833 37.5,135.5 Z"/></g>
<g><path style="opacity:1" fill="#f9d07d" d="M 83.5,135.5 C 85.1667,135.5 86.8333,135.5 88.5,135.5C 84.6767,138.916 80.3434,141.582 75.5,143.5C 75.5,143.167 75.5,142.833 75.5,142.5C 75.8212,140.952 76.8212,140.285 78.5,140.5C 79.937,139.275 81.6036,138.275 83.5,137.5C 81.0752,136.351 81.0752,135.684 83.5,135.5 Z"/></g>
<g><path style="opacity:1" fill="#fbc84e" d="M 153.5,138.5 C 153.5,138.833 153.5,139.167 153.5,139.5C 151.973,139.427 150.973,140.094 150.5,141.5C 149.167,141.5 147.833,141.5 146.5,141.5C 146.672,140.508 146.338,139.842 145.5,139.5C 145.47,138.503 145.97,137.836 147,137.5C 149.099,138.287 151.266,138.62 153.5,138.5 Z"/></g>
<g><path style="opacity:1" fill="#fdc44e" d="M 153.5,139.5 C 155.167,139.5 156.833,139.5 158.5,139.5C 156.672,140.283 155.339,141.616 154.5,143.5C 154.167,143.5 153.833,143.5 153.5,143.5C 152.5,142.833 151.5,142.167 150.5,141.5C 150.973,140.094 151.973,139.427 153.5,139.5 Z"/></g>
<g><path style="opacity:1" fill="#fac75d" d="M 183.5,137.5 C 184.167,137.5 184.833,137.5 185.5,137.5C 184.402,138.397 184.402,139.23 185.5,140C 186.793,140.49 188.127,140.657 189.5,140.5C 189.5,140.833 189.5,141.167 189.5,141.5C 189.5,142.167 189.167,142.5 188.5,142.5C 186.833,142.5 185.167,142.5 183.5,142.5C 183.5,143.5 183.5,144.5 183.5,145.5C 182.833,145.5 182.167,145.5 181.5,145.5C 180.508,145.672 179.842,145.338 179.5,144.5C 180.552,144.649 181.552,144.483 182.5,144C 181.359,143.259 181.359,142.425 182.5,141.5C 181.675,140.614 180.675,140.281 179.5,140.5C 181.076,139.857 182.41,138.857 183.5,137.5 Z"/></g>
<g><path style="opacity:1" fill="#fcc84f" d="M 42.5,140.5 C 43.5,140.5 44.5,140.5 45.5,140.5C 44.1938,141.467 43.5271,142.801 43.5,144.5C 41.9891,143.498 40.3224,142.831 38.5,142.5C 39.1834,140.824 40.5168,140.157 42.5,140.5 Z"/></g>
<g><path style="opacity:1" fill="#f2c870" d="M 67.5,139.5 C 66.1667,140.5 64.8333,141.5 63.5,142.5C 62.1667,142.5 60.8333,142.5 59.5,142.5C 57.5,142.5 55.5,142.5 53.5,142.5C 53.5,142.167 53.5,141.833 53.5,141.5C 56.0593,141.802 58.3926,141.468 60.5,140.5C 62.8056,140.007 65.139,139.674 67.5,139.5 Z"/></g>
<g><path style="opacity:1" fill="#fcc554" d="M 67.5,139.5 C 68.8333,139.5 70.1667,139.5 71.5,139.5C 70.8902,140.391 70.5569,141.391 70.5,142.5C 69.2022,141.884 68.2022,141.884 67.5,142.5C 66.1667,142.5 64.8333,142.5 63.5,142.5C 64.8333,141.5 66.1667,140.5 67.5,139.5 Z"/></g>
<g><path style="opacity:1" fill="#fdc74c" d="M 76.5,138.5 C 77.8333,138.5 78.5,139.167 78.5,140.5C 76.8212,140.285 75.8212,140.952 75.5,142.5C 73.8333,142.5 72.1667,142.5 70.5,142.5C 70.5569,141.391 70.8902,140.391 71.5,139.5C 72.9187,138.549 74.5853,138.216 76.5,138.5 Z"/></g>
<g><path style="opacity:1" fill="#f6d497" d="M 183.5,137.5 C 182.41,138.857 181.076,139.857 179.5,140.5C 178.167,141.833 178.167,143.167 179.5,144.5C 179.842,145.338 180.508,145.672 181.5,145.5C 178.78,146.842 177.114,145.842 176.5,142.5C 177.583,139.229 179.916,137.562 183.5,137.5 Z"/></g>
<g><path style="opacity:1" fill="#fdc54c" d="M 179.5,140.5 C 180.675,140.281 181.675,140.614 182.5,141.5C 181.359,142.425 181.359,143.259 182.5,144C 181.552,144.483 180.552,144.649 179.5,144.5C 178.167,143.167 178.167,141.833 179.5,140.5 Z"/></g>
<g><path style="opacity:1" fill="#f9d78c" d="M 34.5,141.5 C 35.609,141.557 36.609,141.89 37.5,142.5C 37.8333,142.5 38.1667,142.5 38.5,142.5C 40.3224,142.831 41.9891,143.498 43.5,144.5C 45.8825,146.046 48.5491,146.713 51.5,146.5C 54.6248,147.479 57.9581,147.813 61.5,147.5C 56.2877,148.718 50.9544,148.551 45.5,147C 41.2131,146.19 37.5464,144.357 34.5,141.5 Z"/></g>
<g><path style="opacity:1" fill="#fec54a" d="M 53.5,142.5 C 55.5,142.5 57.5,142.5 59.5,142.5C 59.6107,143.117 59.944,143.617 60.5,144C 58.26,144.977 55.9267,145.477 53.5,145.5C 51.0486,144.106 48.3819,143.272 45.5,143C 48.146,142.503 50.8127,142.336 53.5,142.5 Z"/></g>
<g><path style="opacity:1" fill="#fec650" d="M 59.5,142.5 C 60.8333,142.5 62.1667,142.5 63.5,142.5C 64.8333,142.5 66.1667,142.5 67.5,142.5C 67.5,143.5 67.5,144.5 67.5,145.5C 62.8189,145.669 58.1522,146.002 53.5,146.5C 53.5,146.167 53.5,145.833 53.5,145.5C 55.9267,145.477 58.26,144.977 60.5,144C 59.944,143.617 59.6107,143.117 59.5,142.5 Z"/></g>
<g><path style="opacity:1" fill="#f6c966" d="M 70.5,142.5 C 72.1667,142.5 73.8333,142.5 75.5,142.5C 75.5,142.833 75.5,143.167 75.5,143.5C 73.7028,144.73 71.7028,145.396 69.5,145.5C 68.8333,145.5 68.1667,145.5 67.5,145.5C 67.5,144.5 67.5,143.5 67.5,142.5C 68.2022,141.884 69.2022,141.884 70.5,142.5 Z"/></g>
<g><path style="opacity:1" fill="#f6cb75" d="M 146.5,141.5 C 147.833,141.5 149.167,141.5 150.5,141.5C 151.5,142.167 152.5,142.833 153.5,143.5C 153.843,145.483 153.176,146.817 151.5,147.5C 150.833,147.5 150.167,147.5 149.5,147.5C 150.429,146.685 151.429,145.852 152.5,145C 150.273,144.059 148.273,142.892 146.5,141.5 Z"/></g>
<g><path style="opacity:1" fill="#fbc94e" d="M 158.5,138.5 C 159.451,139.919 159.784,141.585 159.5,143.5C 158.778,144.551 157.778,145.218 156.5,145.5C 155.167,145.5 154.5,144.833 154.5,143.5C 155.339,141.616 156.672,140.283 158.5,139.5C 158.5,139.167 158.5,138.833 158.5,138.5 Z"/></g>
<g><path style="opacity:1" fill="#fcc84b" d="M 162.5,139.5 C 163.39,141.782 163.556,144.115 163,146.5C 162.329,147.252 161.496,147.586 160.5,147.5C 161.038,145.883 161.371,144.216 161.5,142.5C 161.263,141.209 161.596,140.209 162.5,139.5 Z"/></g>
<g><path style="opacity:1" fill="#f7d68c" d="M 188.5,142.5 C 187.035,143.737 185.368,144.737 183.5,145.5C 183.5,144.5 183.5,143.5 183.5,142.5C 185.167,142.5 186.833,142.5 188.5,142.5 Z"/></g>
<g><path style="opacity:1" fill="#fcc557" d="M 45.5,140.5 C 48.0961,141.265 50.7628,141.599 53.5,141.5C 53.5,141.833 53.5,142.167 53.5,142.5C 50.8127,142.336 48.146,142.503 45.5,143C 48.3819,143.272 51.0486,144.106 53.5,145.5C 53.5,145.833 53.5,146.167 53.5,146.5C 52.8333,146.5 52.1667,146.5 51.5,146.5C 48.5491,146.713 45.8825,146.046 43.5,144.5C 43.5271,142.801 44.1938,141.467 45.5,140.5 Z"/></g>
<g><path style="opacity:1" fill="#f5d27a" d="M 162.5,139.5 C 163.167,139.833 163.833,140.167 164.5,140.5C 166.238,142.119 166.738,144.119 166,146.5C 161.525,148.987 157.025,151.32 152.5,153.5C 152.5,152.5 152.5,151.5 152.5,150.5C 153.833,150.5 155.167,150.5 156.5,150.5C 156.5,149.5 156.5,148.5 156.5,147.5C 157.833,147.5 159.167,147.5 160.5,147.5C 161.496,147.586 162.329,147.252 163,146.5C 163.556,144.115 163.39,141.782 162.5,139.5 Z"/></g>
<g><path style="opacity:1" fill="#f6ca70" d="M 67.5,145.5 C 68.1667,145.5 68.8333,145.5 69.5,145.5C 67.1617,147.04 64.4951,147.706 61.5,147.5C 57.9581,147.813 54.6248,147.479 51.5,146.5C 52.1667,146.5 52.8333,146.5 53.5,146.5C 58.1522,146.002 62.8189,145.669 67.5,145.5 Z"/></g>
<g><path style="opacity:1" fill="#fdc650" d="M 153.5,143.5 C 153.833,143.5 154.167,143.5 154.5,143.5C 154.5,144.833 155.167,145.5 156.5,145.5C 156.5,146.167 156.5,146.833 156.5,147.5C 156.5,148.5 156.5,149.5 156.5,150.5C 155.167,150.5 153.833,150.5 152.5,150.5C 152.082,149.778 151.416,149.278 150.5,149C 151.056,148.617 151.389,148.117 151.5,147.5C 153.176,146.817 153.843,145.483 153.5,143.5 Z"/></g>
<g><path style="opacity:1" fill="#fec253" d="M 161.5,142.5 C 161.371,144.216 161.038,145.883 160.5,147.5C 159.167,147.5 157.833,147.5 156.5,147.5C 156.5,146.833 156.5,146.167 156.5,145.5C 157.778,145.218 158.778,144.551 159.5,143.5C 160.167,143.167 160.833,142.833 161.5,142.5 Z"/></g>
<g><path style="opacity:1" fill="#f9c659" d="M 149.5,147.5 C 150.167,147.5 150.833,147.5 151.5,147.5C 151.389,148.117 151.056,148.617 150.5,149C 151.416,149.278 152.082,149.778 152.5,150.5C 152.5,151.5 152.5,152.5 152.5,153.5C 152.167,153.5 151.833,153.5 151.5,153.5C 149.236,154.219 146.903,154.552 144.5,154.5C 144.253,152.142 144.919,150.142 146.5,148.5C 147.391,147.89 148.391,147.557 149.5,147.5 Z"/></g>
<g><path style="opacity:1" fill="#f6d998" d="M 146.5,148.5 C 144.919,150.142 144.253,152.142 144.5,154.5C 146.903,154.552 149.236,154.219 151.5,153.5C 148.995,156.837 146.162,157.17 143,154.5C 141.878,151.128 143.045,149.128 146.5,148.5 Z"/></g>
</svg>
